<svg width="30" height="30" viewBox="0 0 30 30" fill="none" xmlns="http://www.w3.org/2000/svg">
<path d="M24.9749 6.46173C22.5867 4.53985 18.8085 4.21407 18.6468 4.20235C18.396 4.18126 18.157 4.32188 18.0539 4.55392C18.0445 4.56798 17.9625 4.75782 17.871 5.05313C19.4507 5.32032 21.3914 5.85704 23.1468 6.94688C23.4281 7.12032 23.5148 7.49063 23.3414 7.77188C23.2265 7.95704 23.032 8.05782 22.8304 8.05782C22.7226 8.05782 22.6124 8.02735 22.514 7.96641C19.4953 6.09376 15.7265 6.00001 15 6.00001C14.2734 6.00001 10.5023 6.09376 7.48589 7.96641C7.20464 8.1422 6.83433 8.05548 6.66089 7.77423C6.48511 7.49063 6.57183 7.12267 6.85308 6.94688C8.60854 5.85938 10.5492 5.32032 12.1289 5.05548C12.0375 4.75782 11.9554 4.57032 11.9484 4.55392C11.8429 4.32188 11.6062 4.17657 11.3531 4.20235C11.1914 4.21407 7.41323 4.53985 4.99214 6.48751C3.72886 7.65704 1.19995 14.4914 1.19995 20.4C1.19995 20.5055 1.22808 20.6063 1.27964 20.6977C3.02339 23.7633 7.78354 24.5649 8.8687 24.6C8.87339 24.6 8.88042 24.6 8.88745 24.6C9.07964 24.6 9.26011 24.5086 9.37261 24.3539L10.4695 22.8445C7.50933 22.0805 5.99761 20.782 5.91089 20.7047C5.66245 20.4867 5.63901 20.107 5.85933 19.8586C6.07729 19.6102 6.45698 19.5867 6.70542 19.8047C6.74058 19.8375 9.52495 22.2 15 22.2C20.4843 22.2 23.2687 19.8281 23.2968 19.8047C23.5453 19.5891 23.9226 19.6102 24.1429 19.8609C24.3609 20.1094 24.3374 20.4867 24.089 20.7047C24.0023 20.782 22.4906 22.0805 19.5304 22.8445L20.6273 24.3539C20.7398 24.5086 20.9203 24.6 21.1124 24.6C21.1195 24.6 21.1265 24.6 21.1312 24.6C22.2164 24.5649 26.9765 23.7633 28.7203 20.6977C28.7718 20.6063 28.7999 20.5055 28.7999 20.4C28.7999 14.4914 26.271 7.65704 24.9749 6.46173ZM11.1 18C9.93979 18 8.99995 16.9266 8.99995 15.6C8.99995 14.2734 9.93979 13.2 11.1 13.2C12.2601 13.2 13.2 14.2734 13.2 15.6C13.2 16.9266 12.2601 18 11.1 18ZM18.9 18C17.7398 18 16.8 16.9266 16.8 15.6C16.8 14.2734 17.7398 13.2 18.9 13.2C20.0601 13.2 20.9999 14.2734 20.9999 15.6C20.9999 16.9266 20.0601 18 18.9 18Z" fill="#FFE99C"/>
</svg>
