<svg width="201" height="200" viewBox="0 0 201 200" fill="none" xmlns="http://www.w3.org/2000/svg">
<g clip-path="url(#clip0_26_160)">
<path fill-rule="evenodd" clip-rule="evenodd" d="M200.501 100.094C200.501 155.244 155.73 199.956 100.5 199.956C45.2728 199.956 0.499146 155.247 0.499146 100.094C0.499146 44.9438 45.27 0.232605 100.5 0.232605C155.728 0.232605 200.501 44.941 200.501 100.094Z" fill="#D1D1D2"/>
<path fill-rule="evenodd" clip-rule="evenodd" d="M6.76603 134.915C-1.07835 112.247 -2.62602 86.6369 9.34763 59.0298C9.85057 57.8702 11.3991 61.905 11.3991 63.1621V68.6433C11.3991 70.9861 11.7029 71.4505 12.4812 73.0271C13.0379 74.1541 13.6483 75.3905 14.2848 76.6802C14.9962 78.1208 14.8251 78.8692 15.3669 81.064C15.6829 82.3419 16.0454 84.6284 16.81 86.1784C17.7893 88.1632 17.9634 90.3403 18.9742 92.3873C19.8399 94.1414 20.9912 96.5403 21.4995 98.5991C22.0193 100.708 23.0094 102.755 24.0229 104.811C24.7881 106.358 25.0948 108.452 26.1872 109.559C27.1218 110.502 27.9805 111.292 29.7971 111.75C32.0431 112.321 35.5596 112.845 37.7326 113.942C39.1784 114.676 41.3689 115.054 42.7825 115.77C43.8486 116.309 44.8065 117.344 46.0274 117.962C47.8324 118.876 48.7962 119.669 49.9966 120.885C50.5924 121.488 52.5201 123.331 52.5201 124.538V130.019C52.5201 130.886 51.9827 134.953 52.5201 135.497C53.3379 136.326 53.9279 138.257 55.7679 137.325C56.9391 136.731 57.9496 136.21 59.0128 135.133C59.629 134.509 60.8762 132.59 62.2606 132.942C62.9645 133.119 64.381 133.261 65.5084 134.403C66.4372 135.343 67.29 135.843 68.394 136.959C69.0716 137.648 70.2516 138.997 71.2797 139.517C71.7908 139.775 74.3405 140.964 74.5245 141.709C74.8458 143.005 75.2606 144.901 73.4439 145.362C71.8142 145.773 71.0694 146.016 69.4747 146.824C68.5956 147.267 66.995 148.365 65.8676 148.649C63.9371 149.14 63.0667 149.208 62.2606 150.841C61.618 152.145 60.8645 152.621 59.7342 153.763C58.8609 154.65 57.4473 155.464 59.0128 157.052C59.8014 157.848 60.6834 158.993 61.8984 159.608C63.3208 160.327 64.4307 161.072 65.8676 161.8C66.8227 162.285 68.7153 162.859 69.4747 163.628C71.1044 165.279 70.529 165.264 68.394 164.722C66.7993 164.32 65.4529 163.613 64.0656 163.261C62.4679 162.859 60.9696 162.897 59.0128 162.897C57.0559 162.897 55.5634 162.531 53.6037 162.531C51.4131 162.531 49.5731 162.167 47.4702 162.167C46.3866 162.167 42.8088 162.448 44.2253 164.359C45.5309 166.122 45.9427 166.184 48.5538 166.184C50.3851 166.184 51.7899 166.175 52.8822 167.281C53.8461 168.257 54.3893 169.239 55.0465 170.57C55.8351 172.171 56.8339 173.46 57.57 174.954C58.4228 176.679 58.9193 177.415 60.4556 178.971C61.3873 179.915 63.1835 180.566 65.1462 180.069C66.3495 179.764 69.7229 178.38 70.1961 179.338C69.5477 178.022 69.4192 182.314 68.394 183.355C67.1002 184.665 65.5084 183.905 64.4248 183.355C63.1952 182.731 61.6268 182.485 60.4556 181.894C58.9836 181.148 58.1804 180.376 56.8485 179.702C54.7456 178.637 55.064 178.53 55.4057 177.146C56.0249 174.644 55.1107 175.685 52.8822 175.685C50.8611 175.685 49.5439 176.072 48.1916 176.415C45.8521 177.007 47.2599 178.025 48.1916 178.971C50.1689 180.974 47.1635 178.998 46.3896 178.607C45.0957 177.951 43.9508 176.868 43.1418 176.049C41.9005 174.792 40.6708 174.277 39.5347 173.126C38.5066 172.085 37.3968 171.496 36.2898 170.934C34.9872 170.275 34.2366 169.222 33.4042 168.379C32.6477 167.612 34.847 167.104 34.847 165.089C34.847 162.519 34.5783 162.261 33.4042 161.069C32.4082 160.064 32.9544 164.081 31.9614 165.089C31.6693 165.382 28.5325 163.353 28.3543 163.261C27.0429 162.599 26.0703 162.045 25.1065 161.069C24.1281 160.081 23.6608 158.386 22.9423 157.416C21.993 156.135 21.5754 155.245 20.0563 154.86C19.285 154.665 17.9955 152.408 17.5314 151.938C16.4291 150.82 15.9352 149.956 15.0062 149.015C13.825 147.817 14.5146 145.992 15.0062 144.995C15.6143 143.765 16.7449 142.869 17.5314 142.073C17.5548 142.049 14.3876 143.052 13.9241 143.17C11.8696 143.691 12.1086 142.428 11.0384 141.342C10.2119 140.505 10.317 138.222 10.317 136.595C10.317 135.261 7.78769 135.175 6.76603 134.915Z" fill="url(#paint0_linear_26_160)"/>
<path fill-rule="evenodd" clip-rule="evenodd" d="M166.237 141.978C162.501 145.433 165.551 150.985 169.502 152.148C168.877 157.629 162.788 156.339 159.8 159.552C158.281 162.542 169.695 160.129 163.895 163.338C160.904 163.649 157.031 174.999 160.556 169.473C164.158 168.899 166.958 163.01 170.63 165.758C173.729 164.643 174.024 165.915 171.401 167.556C168.88 169.784 167.084 175.525 163.749 173.026C161.266 176.661 156.441 178.584 152.133 178.613C148.955 179.178 154.125 184.032 149.244 184.446C144.431 186.961 148.5 178.477 151.079 178.409C151.076 174.694 153.196 172.952 156.903 173.268C160.533 167.769 158.886 166.391 155.609 169.94C152.668 172.975 148.091 174.44 143.941 174.129C142.425 170.304 137.801 172.387 135.538 170.597C139.472 166.367 145.827 166.151 150.474 162.995C153.187 161.753 157.811 162.122 156.199 157.889C157.411 155.156 162.852 155.239 163.144 153.518C160.661 153.21 159.011 153.381 158.745 151.299C154.724 152.172 154.37 155.479 154.794 158.83C152.574 162.957 147.451 161.137 143.926 163.042C139.498 163.85 134.53 164.365 130.435 162.167C127.474 160.768 122.64 165.027 121.104 163.64C123.84 160.416 128.443 161.608 131.878 159.608C135.497 157.428 141.589 152.225 139.79 147.809C134.364 146.537 132.194 154.26 128.914 156.248C126.25 155.198 124.419 153.352 121.425 154.473C121.77 151.852 121.673 149.344 117.923 149.264C113.209 150.903 108.644 145.377 113.843 142.44C114.19 139.062 108.203 142.848 106.693 143.721C100.571 146.191 104.926 137.757 106.816 135.758C107.052 131.637 108.831 126.771 106.567 123.044C103.807 121.754 98.7429 116.004 104.094 114.901C108.539 116.971 114.862 114.324 111.69 108.742C110.837 106.18 107.949 99.8178 112.493 99.9746C113.752 97.2887 110.063 92.9197 114.926 91.6566C117.479 88.323 119.932 85.359 124.176 84.4509C128.508 81.5964 131.571 77.5203 133.668 72.7638C134.898 66.975 142.159 71.1606 146.046 71.4002C148.888 73.4826 146.908 79.3336 146.149 82.5548C144.677 86.5274 145.012 91.1124 145.786 95.2122C147.621 99.5161 151.815 102.184 154.242 106.027C156.266 110.375 153.661 116.782 157.893 119.645C161.392 123.195 163.825 131.504 165.781 136.006C166.301 136.66 173.597 137.855 176.126 134.154C179.167 135.414 181.208 138.074 180.966 138.375C180.265 139.257 184.453 142.928 180.578 144.504C178.676 145.277 177.707 141.822 176.086 140.813C174.465 139.801 171.81 141.425 171.161 141.449C168.574 141.538 166.623 141.191 166.237 141.978Z" fill="url(#paint1_linear_26_160)"/>
<path fill-rule="evenodd" clip-rule="evenodd" d="M122.5 86.5422C120.079 88.0035 120.943 91.1774 120.581 93.5143C119.816 95.9576 117.059 96.5344 114.877 96.9811C112.31 97.4277 110.367 99.8799 107.584 99.3711C105.224 99.2646 102.552 99.735 100.638 97.969C83.0005 78.3071 91.9874 62.8338 93.6435 58.9144C86.333 44.6716 139.075 49.9161 132.81 68.1286C133.429 70.1756 133.026 72.3763 132.868 74.4499C131.747 76.1921 129.559 77.2215 129.454 79.5377C128.54 81.7591 123.373 86.1636 122.5 86.5422Z" fill="#B3B3B5"/>
<path fill-rule="evenodd" clip-rule="evenodd" d="M143.783 74.1215C143.336 74.5859 142.568 74.6007 141.966 74.7871C140.824 75.006 139.665 75.2545 138.496 75.1983C137.115 74.8906 136.23 73.6512 135.038 72.9857C134.229 72.4976 133.444 73.3229 133.371 74.1245C133.303 74.8315 132.962 75.917 133.724 76.346C134.84 76.9169 136.107 77.0411 137.29 77.4108C138.076 77.8279 137.41 78.7449 136.981 79.1797C136.429 79.7565 135.815 80.2949 135.126 80.6972C134.413 80.8569 133.493 81.2799 133.555 82.1525C133.476 82.8861 134.361 83.531 133.931 84.2172C133.169 85.3797 131.644 85.9003 131.18 87.2847C130.882 87.8053 131.452 88.2904 131.773 87.6722C132.179 87.0628 132.489 86.3381 133.227 86.0571C134.077 85.5957 135.006 85.3146 135.929 85.0514C136.496 84.6018 136.522 83.7824 136.659 83.1168C136.814 82.262 136.773 81.3746 136.983 80.5315C137.454 79.5909 138.666 79.4785 139.288 78.671C140.085 77.7806 140.862 76.8074 141.981 76.3134C142.673 76.0945 143.342 75.8401 143.441 75.0001C143.555 74.7072 143.669 74.4144 143.783 74.1215Z" fill="#FBFBFC"/>
<path fill-rule="evenodd" clip-rule="evenodd" d="M146.651 44.71C147.957 41.891 148.637 40.5215 146.651 38.51C144.612 36.4453 142.06 40.0098 142.06 35.41C142.06 33.5465 144.674 32.5674 145.121 30.76C145.556 29 143.751 25.9178 143.079 24.5601C141.8 21.9688 141.776 21.6908 140.018 19.9101C137.88 17.7436 140.433 11.4824 141.806 10.0945C142.895 8.99086 114.891 -5.11323 77.5271 4.66951C77.1445 4.76978 75.0474 11.3153 74.7232 11.6442C72.8627 13.5273 72.0274 13.6394 72.6816 16.2942C72.7488 16.5625 81.7153 15.2897 82.4075 15.2897C84.9573 15.2897 85.4451 16.5376 87.9861 16.2942C99.5111 15.1982 136.671 22.8503 140.018 24.0454C142.588 24.9594 141.817 27.1187 141.04 28.6924C140.561 29.6597 137.13 31.1032 136.449 31.7924C136.002 32.2479 138.201 34.9604 137.468 36.4424C136.51 38.3858 135.202 38.797 137.468 41.0924C139.121 42.7666 139.399 44.0829 141.04 45.7424C141.928 46.6446 146.394 44.8136 146.651 44.71Z" fill="url(#paint2_linear_26_160)"/>
<path fill-rule="evenodd" clip-rule="evenodd" d="M91.6077 73.1691C91.5201 73.3525 94.1837 72.5183 94.6686 72.3941C95.9099 72.0805 96.5992 71.5481 97.4754 71.1044C99.2599 70.1992 98.153 70.5867 99.2599 70.5867C100.475 70.5867 100.971 70.2199 101.556 69.0367C101.985 68.1641 102.785 67.534 103.34 66.9691C103.86 66.4455 104.605 66.197 105.636 65.9367C107.119 65.5611 107.59 65.7681 108.443 64.9044C109.579 63.7537 106.135 63.8691 105.636 63.8691C104.111 63.8691 103.691 64.2654 104.105 62.5794C104.126 62.4995 100.82 62.0706 100.79 62.0617C99.7623 61.8014 98.9795 60.6271 98.2406 60.2544C97.1424 59.6983 96.456 59.222 95.4338 58.9617C94.2334 58.6571 94.1253 57.2727 93.9034 56.3794C93.5762 55.0512 94.7883 54.2851 95.4338 53.7941C96.456 53.0191 96.9146 53.099 98.2406 52.7617C99.6805 52.3979 100.735 52.9658 101.301 53.5367C102.087 54.3324 103.32 54.3058 104.362 54.5691C105.198 54.7821 104.824 56.1191 106.658 56.1191C108.665 56.1191 108.761 56.4415 109.208 56.8941C109.552 57.2461 103.889 59.2191 108.443 59.2191C109.731 59.2191 109.514 60.7691 111.249 60.7691C112.476 60.7691 112.978 60.0089 114.053 59.7367C114.667 59.5829 115.207 57.6543 115.33 57.1544C115.584 56.122 116.343 55.6281 116.606 54.5691C116.898 53.3829 117.356 52.8209 117.625 51.7294C117.909 50.5787 118.645 50.3066 118.645 48.8867C118.645 47.4314 119.001 46.7688 119.921 46.3044C120.777 45.8725 119.693 45.1182 119.41 43.9794C119.068 42.598 118.694 41.8526 118.39 40.6221C118.116 39.5099 119.071 38.4686 119.41 37.7794C120.149 36.2856 118.317 35.8892 117.625 35.7118C117.059 35.5698 116.15 37.0547 115.33 37.2618C114.1 37.5724 114.31 36.0017 114.31 34.6794C114.31 33.162 113.776 32.8602 112.78 32.3544C111.909 31.9137 110.899 33.1294 109.719 33.1294C108.951 33.1294 108.381 31.5144 107.931 31.0618C107.315 30.4376 107.157 29.2101 106.912 28.2221C106.562 26.8022 105.718 27.1868 104.105 27.1868C103.688 27.1868 102.356 26.0982 101.556 25.8971C100.452 25.6161 99.4001 25.3499 98.4947 25.1221C97.4783 24.8647 96.8591 24.3826 95.6908 24.0868C94.6218 23.8176 93.366 23.8354 92.3729 24.0868C92.0896 24.1607 90.8074 22.7586 90.5884 22.5368C88.9528 20.8803 85.08 23.1314 84.2125 23.5721C83.3276 24.0188 82.2732 24.3855 81.4057 24.6044C80.1382 24.9239 79.4226 25.7374 78.599 26.1544C77.7286 26.5952 77.0451 27.3229 76.5603 27.4471C76.3763 27.4915 74.51 26.2816 74.0076 26.1544C72.8072 25.8498 71.5134 25.8971 70.1815 25.8971C68.8731 25.8971 68.2656 26.4798 67.3777 26.9294C66.6183 27.314 66.1627 28.6155 65.8472 29.2544C65.2894 30.3814 64.825 30.3726 64.825 32.0971C64.825 33.3069 65.6632 33.6086 65.3361 34.9368C65.0849 35.9514 63.0726 34.0494 62.7863 33.9044C62.6929 33.8571 61.1332 35.6142 60.7448 35.7118C59.7751 35.9573 59.6554 37.5398 59.4714 38.2971C59.2611 39.146 58.1512 39.8914 57.6839 40.3618C56.8749 41.1841 56.3287 41.8171 55.8994 42.6868C55.1546 44.1953 54.366 43.1926 54.1148 42.1721C53.9133 41.3616 55.6803 40.1044 53.3496 40.1044C52.45 40.1044 51.53 41.0244 50.7969 41.3971C49.5644 42.0212 48.9306 40.2878 48.7583 39.5868C48.548 38.7378 49.4855 37.3387 49.7776 36.7471C50.3238 35.6408 50.2245 34.6705 50.5428 33.3868C50.7735 32.458 51.5271 32.4935 51.8192 31.3221C52.1492 29.9732 53.8753 31.612 52.8385 29.5118C52.2631 28.3493 53.7935 26.394 54.1148 25.6368C54.6756 24.3057 55.4525 24.5571 56.6646 24.8618C57.7774 25.1458 59.337 24.8618 60.4907 24.8618C62.1526 24.8618 62.2577 24.3648 63.0404 23.5721C63.7093 22.8947 64.6556 22.3652 65.3361 22.0221C66.5599 21.4009 67.2959 21.8446 68.1429 20.9868C68.6745 20.4484 70.2662 20.0402 70.9467 19.6971C72.004 19.1608 72.9036 19.201 74.0076 18.9212C74.9977 18.6707 76.0434 18.2784 76.8144 17.888C78.0791 17.2482 75.2314 16.3895 75.0299 16.338C73.9463 16.0638 73.1548 15.8215 71.712 15.8215H67.8859C66.6446 15.8215 65.8501 16.3362 64.825 16.8547C63.8874 17.3301 63.0083 17.5735 61.7641 17.888C60.6951 18.1592 59.9912 18.6603 58.9602 18.9212C58.0782 19.1442 58.0986 20.1231 56.4105 19.6971C55.6599 19.5078 54.6289 20.4721 53.3496 20.4721C52.0032 20.4721 51.5884 19.8006 51.308 18.663C50.9868 17.3606 52.0674 16.876 52.3274 15.8215C52.5961 14.7353 50.2566 16.6125 49.2665 17.113C48.288 17.6085 47.4965 18.0096 46.7167 18.4047C45.6565 18.9407 45.0899 19.2782 44.4211 19.9544C43.0571 21.3358 40.3554 23.084 38.0452 24.0868C37.1427 24.4802 36.6199 25.196 35.7495 25.6368C34.9726 26.0302 34.4732 27.1897 33.9621 27.7044C33.1238 28.5563 32.6332 29.1095 32.1775 30.0294C31.5905 31.2215 33.67 29.6626 33.9621 29.5118C35.8021 28.583 34.7886 29.9673 34.2191 30.5471C33.4393 31.3339 32.8347 31.6889 32.1775 32.3544C31.3977 33.1442 31.0501 33.7565 30.393 34.4221C29.3474 35.4781 28.8567 34.9249 28.3514 33.9044C28.3076 33.8157 26.5172 36.0194 26.3099 36.2294C25.6907 36.8565 25.1211 37.951 24.5253 38.5544C23.5118 39.5808 23.2782 40.2257 24.7794 39.8471C25.6761 39.6193 23.7951 41.1042 23.506 41.3971C22.4692 42.4442 22.7846 41.3202 21.4644 41.6544C20.7343 41.8378 19.8391 43.0417 19.4243 43.4618C18.1451 44.7574 18.7572 44.6331 18.9144 45.2721C19.0552 45.843 19.5353 45.9317 18.4041 47.0794C17.6249 47.8692 17.0203 48.2212 16.3635 48.8867C15.6111 49.6499 15.2475 50.3717 14.8333 51.2117C14.4378 52.0134 13.3966 52.6671 12.5376 53.5367C12.2137 53.8651 13.2523 54.4153 13.0476 54.8294C12.5432 55.8499 12.1918 56.5628 11.7724 57.4117C11.1182 58.7369 13.5117 55.0276 14.3231 53.7941C15.0094 52.7529 15.4633 51.8655 16.1085 51.2117C16.9137 50.3953 17.5233 49.7801 18.1492 49.1441C18.6337 48.656 18.2006 50.5906 17.8939 51.2117C17.407 52.1997 16.8045 52.6434 16.3635 53.5367C15.9157 54.4449 15.0275 54.6933 14.578 55.6044C14.102 56.5687 13.255 56.7344 12.7926 57.6691C12.1174 59.0386 11.7508 58.6156 12.0274 59.7367C12.2467 60.6241 13.4086 58.4885 13.8128 57.6691C14.3347 56.6131 15.4668 57.4295 15.8535 55.8617C16.1368 54.714 17.2294 54.4153 17.6389 54.3117C18.304 54.1431 18.7593 55.1784 19.4243 55.3441C20.3137 55.5689 18.4041 57.0006 18.4041 57.9294C18.4041 60.3372 16.9365 56.9 16.3635 59.2191C16.1803 59.9615 15.1876 60.8282 14.8333 61.5441C14.3461 62.532 13.7436 62.9757 13.3029 63.8691C12.726 65.0375 12.0274 61.8221 12.0274 61.2867C12.0274 59.8639 11.9144 60.6271 11.0072 61.5441C10.3757 62.186 10.039 63.5052 9.73173 64.1294C9.26618 65.073 9.52553 66.6496 9.73173 67.4867C10.0907 68.9421 11.2248 68.4096 12.0274 68.0044C13.3061 67.3566 12.7926 68.5457 12.7926 70.0691C12.7926 71.8291 11.5008 70.8441 10.242 70.8441C9.53897 70.8441 8.89408 72.7993 8.71154 73.1691C8.27752 74.0476 8.42151 75.636 8.20129 76.5294C7.86337 77.896 7.04587 78.4314 8.71154 78.8544C9.29071 78.9993 10.2972 76.7985 10.497 76.5294C11.0294 75.8106 11.0072 74.3256 11.0072 73.1691C11.0072 71.9622 11.2622 75.5769 11.2622 76.7867C11.2622 78.4225 12.6924 77.5617 13.8128 77.5617C14.7822 77.5617 13.7112 79.9636 14.578 80.4044C16.0249 81.135 14.628 81.4101 13.5578 81.9544C13.3785 82.0431 14.578 83.2529 14.578 83.7617C14.578 85.995 13.0476 83.3476 13.0476 85.569C13.0476 87.3291 13.2579 87.5894 14.0681 88.4117C14.8473 89.2015 15.1966 89.8138 15.8535 90.4764C16.8357 91.4732 16.0489 92.6061 15.5982 93.0617C15.0976 93.5675 14.4154 90.6184 13.8128 93.0617C13.6481 93.7302 13.8128 95.6884 13.8128 96.419C13.8128 97.6791 13.1343 98.5695 12.7926 99.2617C12.3691 100.119 11.5554 100.735 11.5172 100.812C11.1132 101.628 12.8986 102.06 13.3029 102.876C13.9542 104.196 15.0348 103.447 15.5982 102.876C17.0259 101.433 16.6187 102.986 16.6187 104.426C16.6187 106.112 17.398 105.985 18.4041 106.494C20.229 107.417 19.9346 107.402 19.9346 110.626C19.9346 111.768 20.8219 112.422 21.2103 113.212C21.8091 114.424 22.3436 114.3 21.9756 115.794C21.7098 116.868 21.4352 117.743 21.7185 118.894C21.9814 119.956 22.8547 120.302 23.506 120.962C24.2566 121.722 26.0207 120.976 26.5669 120.701C27.0342 120.465 26.821 117.835 26.821 117.087C26.821 116.8 28.8596 115.602 29.1166 115.537C29.2422 115.504 29.6278 118.299 29.6278 118.894C29.6278 119.894 27.9454 119.311 28.3514 120.962C28.5997 121.967 29.8819 121.133 29.8819 123.287C29.8819 125.227 31.2166 123.742 31.6664 123.287C32.3031 122.639 33.8482 122.568 34.4732 122.251C35.3844 121.79 33.5619 120.104 33.4539 119.669C33.1968 118.637 32.4375 118.143 32.1775 117.087C31.8037 115.572 34.0351 117.743 34.2191 118.119C34.7068 119.11 35.1946 119.657 36.2577 119.926C37.3588 120.204 36.3833 116.303 37.0229 118.894C37.4727 120.71 39.7947 119.557 40.5949 119.151C41.2083 118.841 41.7778 117.779 42.6365 117.344C42.7271 117.297 44.6693 119.021 44.9322 119.151C46.1238 119.755 44.4503 120.9 44.167 121.476C43.3579 123.112 57.5934 131.128 57.9409 130.776C58.9748 129.729 59.8861 130.424 60.4907 131.034C62.0503 132.613 62.3512 131.572 63.8057 130.519C63.8699 130.472 61.6473 130.756 62.5293 128.969C62.982 128.052 62.7513 126.194 63.0404 125.609C63.499 124.68 63.8436 126.813 65.2076 126.514C66.2912 126.277 65.9728 125.57 65.9728 124.449C65.9728 123.789 67.2959 124.405 67.6318 124.319C69.3959 123.872 68.4525 123.443 69.6733 124.062C69.9187 124.186 69.6733 127.517 69.6733 127.934C69.6733 128.898 69.3929 129.842 69.1622 130.776C68.9957 131.451 67.734 130.723 67.1206 131.034C66.6183 131.291 66.3554 129.945 66.3554 132.584C66.3554 133.737 65.082 133.4 65.082 135.169C65.082 136.376 64.0306 135.944 62.5293 135.944C61.7612 135.944 62.8214 134.169 62.2752 133.619C61.2209 132.551 60.4089 134.205 60.2337 134.909C59.851 136.47 70.0443 138.37 59.9796 137.234C58.785 137.84 59.2844 138.926 59.7255 139.819C59.9679 140.307 88.8652 119.338 89.0579 109.594C89.0813 108.349 89.8378 105.734 90.0773 105.976C90.6147 106.521 93.2988 106.237 94.1604 106.237C95.4922 106.237 96.7306 105.973 97.7295 105.719C99.6133 105.243 98.1442 104.66 97.2213 104.426C95.6675 104.033 95.2995 104.293 94.4145 103.394C93.585 102.554 94.3035 102.731 95.1797 101.844C95.206 101.817 94.1399 100.75 95.9449 100.294C97.122 99.9953 97.2213 98.2766 97.2213 97.194C97.2213 95.0524 98.3048 97.5845 98.4947 97.969C98.8656 98.7204 100.235 99.4954 100.79 99.7764C100.799 99.7823 102.017 97.2916 102.067 97.194C102.49 96.3332 102.832 95.2358 102.832 94.094C102.832 92.5618 100.986 93.6562 100.279 93.8367C98.9474 94.1739 98.4947 94.0112 98.4947 92.2867C98.4947 90.5533 98.6787 90.5089 99.0058 89.1867C99.0642 88.95 100.758 87.9621 101.044 87.3764C101.357 86.7493 99.7769 87.119 98.4947 87.119C96.7744 87.119 98.0858 85.5424 99.0058 85.3117C100.352 84.9686 101.415 85.5986 102.321 85.8264C102.922 85.9802 102.832 84.6461 102.832 84.019C102.832 83.1405 104.541 84.7497 105.382 84.5367C106.824 84.1699 105.694 83.4038 107.423 84.2793C108.282 84.7142 109.736 83.4925 110.227 83.244C111.36 82.6731 111.796 82.4158 113.034 82.7293C113.983 82.9689 114.792 83.9895 115.33 84.5367C116.314 85.5335 116.118 85.9506 117.625 85.569C119.024 85.217 120.061 85.8648 120.94 86.0867C121.866 86.3204 121.922 87.5627 123.236 87.894C124.486 88.2105 125.456 87.8763 126.554 88.1514C128.648 88.6838 128.052 87.5746 127.573 86.6014C127.427 86.3085 128.814 84.6757 128.849 84.5367C129.051 83.7173 127.821 83.0163 128.084 81.9544C128.105 81.8656 132.67 81.4337 129.615 80.6617C128.464 80.3718 127.217 80.428 126.297 80.6617C124.86 81.0255 126.048 83.25 124.258 81.4367C122.97 80.1322 124.81 79.5524 125.532 79.369C126.335 79.1649 128.286 79.162 126.043 78.594C124.825 78.2864 124.135 77.9551 123.493 77.3044C123.055 76.8607 122.307 76.9376 121.705 76.7867C122.132 76.5294 122.555 76.2691 122.982 76.0117C123.595 75.639 123.817 73.876 124.258 73.4294C124.93 72.7461 125.885 74.4854 126.808 74.7191C128.312 75.1006 127.608 76.2336 127.062 76.7867C125.894 77.9699 128.35 78.594 129.104 78.594C129.953 78.594 130.38 81.2799 130.38 78.594C130.38 77.6357 131.201 76.5294 132.164 76.5294C133.701 76.5294 133.52 75.2988 133.184 73.9441C132.813 72.4355 131.91 72.82 131.91 74.4617C131.91 76.133 130.783 75.7544 129.869 75.7544C128.277 75.7544 127.897 75.5207 127.573 74.2044C127.319 73.1691 129.693 74.5031 130.634 74.9794C131.612 75.4733 130 73.3672 129.615 73.1691C129.127 72.9235 131.019 72.2669 130.634 71.8794C129.942 71.1783 128.09 72.7786 127.827 72.9117C126.443 73.6128 125.949 72.607 125.023 72.1367C123.873 71.554 123.948 70.9594 122.471 70.5867C120.964 70.2051 120.666 71.4416 120.432 72.3941C120.204 73.314 122.149 72.9797 120.686 74.4617C119.547 75.6153 118.875 73.6601 118.39 73.1691C117.675 72.4443 116.22 72.6544 115.075 72.6544C113.513 72.6544 114.398 71.0067 114.564 70.3294C114.754 69.5573 113.154 68.6403 112.78 68.2617C111.673 67.1406 111.571 67.7352 111.249 69.0367C110.893 70.4802 110.242 70.8441 112.269 70.8441C113.98 70.8441 112.864 72.5656 112.523 72.9117C111.442 74.0091 110.531 72.2994 109.719 73.9441C109.047 75.3018 107.847 74.2901 108.697 76.0117C109.1 76.8252 107.785 77.0026 108.443 78.3367C108.957 79.375 109.444 79.8128 109.719 80.919C110.239 83.0311 109.024 82.821 107.677 83.5043C106.068 84.3178 106.147 83.0932 106.147 81.694C106.147 80.3866 106.401 79.5554 106.401 78.0794C106.401 76.3075 106.033 76.3696 104.616 76.0117C103.299 75.6775 101.915 76.2188 101.301 76.5294C99.958 77.2067 100.384 77.2275 99.0058 76.5294C98.1705 76.1064 98.4947 74.3641 98.4947 73.1691C98.4947 72.1042 96.456 73.6867 95.4338 73.9441C94.0844 74.2872 92.7322 73.737 91.6077 73.1691ZM64.5388 109.544C64.787 110.475 63.3004 110.827 63.3851 111.398C63.4231 111.715 63.5516 112.011 63.683 112.295C63.5194 112.786 63.0755 113.081 62.7367 113.442C62.3336 113.794 61.9131 114.211 61.8167 114.768C61.656 115.504 62.6403 118.424 62.4008 119.148C62.2781 119.391 61.1449 117.267 60.9726 117.075C60.6572 116.82 60.3593 116.486 59.9358 116.442C59.3691 116.306 58.5367 116.394 57.976 116.229C57.6167 116.01 57.2867 115.359 57.24 114.969C57.1874 114.566 57.1494 114.135 57.3101 113.75C57.4765 113.546 57.7598 113.519 58.0023 113.552C58.2534 113.504 58.3381 113.147 58.1775 112.963C57.9935 112.478 57.8621 111.487 57.8737 110.949C57.9409 110.452 58.3352 110.097 58.7003 109.804C59.0683 109.526 59.5444 109.36 59.7956 108.949C59.9241 108.766 59.9766 108.491 60.2191 108.417C60.4878 108.408 60.6484 108.677 60.7448 108.896C60.9113 109.245 61.3114 110.254 61.364 110.638C61.2325 110.857 61.5334 111.177 61.7466 111.008C62.1759 110.721 62.4067 110.233 62.7834 109.89C63.093 109.695 63.9663 109.446 64.5388 109.544Z" fill="url(#paint3_radial_26_160)"/>
<path fill-rule="evenodd" clip-rule="evenodd" d="M42.6356 117.343C42.7266 117.297 44.6708 119.021 44.9323 119.154C46.1232 119.755 44.4491 120.901 44.1648 121.477C43.3576 123.112 45.7708 122.769 46.7173 122.769C48.2948 122.769 47.553 124.554 47.4819 124.836C47.1806 126.06 46.9106 126.517 47.4819 127.677C48.0277 128.78 47.2261 129.278 47.2261 130.778C47.2261 132.226 46.0692 132.068 44.6765 132.068C43.0932 132.068 42.4963 131.751 41.3594 132.327C41.1405 132.439 40.2139 134.647 40.086 134.909C39.6568 135.778 38.4573 136.121 37.7893 136.461C36.8115 136.956 37.9314 139.333 38.0451 139.561C38.4573 140.396 39.563 140.571 40.086 141.628C40.7852 143.044 39.904 143.77 40.8506 144.725C41.6607 145.549 41.51 146.185 42.8914 146.536C44.1449 146.853 43.6674 146.404 45.1852 146.018C46.0636 145.796 46.3336 147.437 46.9731 148.085C47.2972 148.416 47.2261 150.408 47.4819 150.926C48.1215 152.222 49.5768 150.117 50.0316 151.96C50.4096 153.482 51.774 152.239 52.3282 151.96C53.1952 151.522 52.6608 153.923 53.0928 154.801C53.5817 155.791 55.4776 155.667 54.1133 154.286C53.4112 153.572 54.8921 152.42 55.1337 151.444C55.2303 151.059 52.3112 150.728 52.0724 150.667C50.5062 150.273 51.3846 149.041 51.8194 148.6C52.5812 147.829 54.0252 149.973 54.1133 150.152C54.1161 150.155 55.1991 148.344 56.1541 148.344C58.0273 148.344 57.5014 147.123 56.6658 146.277C55.111 144.702 56.643 145.007 56.6658 144.984C57.0864 144.558 58.1836 145.523 58.4508 144.984C59.2467 143.369 59.2154 146.28 59.2154 147.051C59.2154 147.365 61.3188 146.68 61.765 146.792C63.5359 147.241 63.3341 146.645 63.5501 145.759C63.5984 145.566 61.3813 144.337 61.2563 144.21C60.179 143.119 59.7242 143.427 59.7242 141.628C59.7242 139.604 59.4201 139.61 58.4508 140.594C57.6208 141.435 57.3735 140.278 56.6658 139.561C55.8386 138.723 55.3895 142.016 55.3895 139.561C55.3895 138.507 54.7443 137.482 54.3691 136.72C53.9314 135.833 54.4799 133.688 54.6249 133.101C54.9745 131.685 54.9376 132.845 56.1541 132.845C56.8846 132.845 57.5924 131.129 57.9392 130.778C58.9738 129.727 59.8862 130.424 60.4916 131.034C62.0493 132.615 62.3506 131.57 63.8059 130.519C63.8713 130.473 61.6485 130.755 62.5297 128.97C62.9844 128.052 62.7542 126.195 63.0413 125.611C63.5018 124.681 63.8457 126.811 65.2101 126.514C66.293 126.278 65.9747 125.57 65.9747 124.448C65.9747 123.791 67.2964 124.404 67.6318 124.318C69.3969 123.872 68.4532 123.443 69.6726 124.062C69.9171 124.186 69.6726 127.516 69.6726 127.937C69.6726 128.898 69.3941 129.842 69.1638 130.778C68.9961 131.451 67.7341 130.726 67.123 131.034C66.617 131.29 66.3555 129.946 66.3555 132.586C66.3555 133.737 65.0821 133.4 65.0821 135.168C65.0821 136.377 64.0305 135.942 62.5297 135.942C61.7622 135.942 62.8196 134.169 62.2767 133.619C61.2221 132.551 60.4092 134.204 60.2358 134.909C59.8493 136.469 61.9669 136.227 59.98 137.235C58.7862 137.839 59.2836 138.925 59.7242 139.817C59.9658 140.309 61.4751 141.351 62.0209 141.628C62.4017 141.818 63.01 143.919 63.2971 144.21C63.6354 144.556 64.1243 143.945 64.5705 145.759C64.7695 146.568 65.2243 146.078 65.5909 147.57C66.0571 149.455 64.3204 148.859 63.2971 148.859C61.8787 148.859 61.7082 149.754 61.2563 150.667C60.5485 152.098 61.5576 152.941 59.7242 152.478C58.6526 152.204 58.0273 150.843 58.9596 152.734C59.3177 153.462 58.141 154.231 59.2154 155.319C60.0568 156.171 60.0283 156.868 61.5092 156.868C63.2573 156.868 63.5018 156.71 64.0617 155.575C64.6728 154.34 64.9258 154.027 66.6114 154.027C69.63 154.027 65.9775 154.559 66.3555 156.093C66.6256 157.179 68.4248 156.796 69.1638 156.609C70.136 156.364 66.9269 154.622 69.6726 155.319C70.8864 155.624 71.4577 155.319 72.2223 154.542C72.9414 153.816 73.6321 152.478 71.9693 152.478C70.8324 152.478 69.6584 152.731 68.6522 152.478C67.5067 152.187 66.8075 151.96 65.338 151.96C63.3938 151.96 65.2157 150.791 65.5909 150.411C65.9775 150.019 66.1253 149.366 66.6114 149.118C67.0747 148.885 67.9103 149.328 68.1434 148.859C68.3339 148.473 67.5351 148.188 67.123 148.085C66.3101 147.88 68.8256 148.52 69.4168 149.118C69.9 149.605 70.8494 149.426 71.4577 149.118C71.9125 148.888 75.2495 150.633 75.7952 151.185C76.4006 151.798 76.557 151.185 77.3244 150.411C77.8048 149.924 76.5968 148.491 76.8156 149.377C77.0658 150.391 79.371 149.763 79.8769 149.634C80.8405 149.392 80.4994 148.344 82.4266 148.344C83.8876 148.344 84.5385 148.085 85.9966 148.085C87.415 148.085 88.316 147.305 89.3137 147.051C90.1267 146.847 89.4956 149.377 90.3341 149.377C90.9112 149.377 91.5763 147.345 91.8634 147.051C93.0714 145.828 93.3954 146.928 93.3954 148.344C93.3954 149.242 95.152 147.97 95.9451 147.57C96.9655 147.051 96.1952 145.232 95.9451 144.725C95.2544 143.326 96.2407 143.122 97.4743 143.436C98.3981 143.669 97.6363 141.274 96.9655 140.594C96.3913 140.013 94.7712 139.716 94.16 139.561C93.0117 139.27 91.8975 139.414 93.6484 138.527C95.081 137.802 94.8365 136.043 93.3954 135.168C92.591 134.679 93.9724 132.966 94.16 132.586C94.7001 131.489 95.2629 131.21 95.9451 130.519C96.7239 129.73 97.3293 129.376 97.9859 128.711C98.7164 127.971 98.7505 126.811 98.7505 125.611C98.7505 124.589 99.0064 123.333 99.0064 121.995C99.0064 121.762 97.3634 123.083 96.9655 123.285C95.766 123.892 95.1037 123.892 93.9042 123.285C92.682 122.666 92.429 122.217 92.1192 120.961C91.6758 119.162 92.4802 118.932 93.6484 118.635C94.629 118.388 95.0725 120.783 95.1805 121.218C95.4818 122.441 95.1805 119.646 95.1805 118.894C95.1805 117.832 94.2169 116.946 93.9042 116.309C93.4494 115.388 92.7189 115.043 91.6076 114.761C90.4137 114.458 90.0073 113.839 89.5667 112.953C89.038 111.876 89.0579 110.964 89.0579 109.593C86.5225 110.877 85.3287 110.906 82.4237 110.906C81.6079 110.906 80.6643 107.29 80.4994 106.622C80.1157 105.071 79.3454 103.332 79.3454 101.559C79.3454 100.188 77.6541 98.6771 77.0373 98.0524C75.7213 96.7196 75.1642 96.495 72.8078 96.495C71.0114 96.495 70.6476 98.2942 69.7323 99.2212C68.4618 100.508 67.1997 99.7394 66.654 101.947C66.2475 103.6 65.4033 104.484 64.7325 105.842C63.9537 107.42 65.5625 107.449 65.1163 109.251C64.7297 110.822 67.7938 111.064 62.3278 114.703C60.9322 115.633 64.056 118.733 63.3852 119.571C62.3961 120.812 61.5178 119.977 60.8867 118.696C60.0965 117.095 62.1005 117.498 60.3097 117.138C58.7293 116.819 55.7022 114.706 54.3492 114.021C52.6892 113.18 52.2032 112.855 49.736 112.855C47.4507 112.855 45.5207 113.431 43.7726 114.314C43.2581 114.576 42.0046 116.03 42.6356 117.343Z" fill="url(#paint4_linear_26_160)"/>
<path fill-rule="evenodd" clip-rule="evenodd" d="M170.265 69.8886C171.121 70.3382 171.83 71.0896 172.779 71.3321C173.805 71.4416 174.31 70.3323 175.087 69.8827C175.437 70.3294 174.678 71.2996 174.631 71.9415C174.547 72.5331 173.959 73.947 174.915 73.9736C175.694 73.6187 176.308 72.9472 176.836 72.2816C177.125 71.5776 177.873 70.8529 178.504 71.6871C179.001 72.539 179.818 72.0243 180.365 71.5185C180.896 71.0245 181.282 71.5688 180.838 72.045C180.382 72.959 179.652 73.8168 179.623 74.8847C179.576 75.4881 180.408 76.1951 180.411 76.4968C179.959 76.4939 179.036 75.8993 178.852 76.2542C179.409 77.1446 180.157 77.9137 180.96 78.5793C181.381 78.7627 182.727 79.5021 181.673 79.7388C181.133 79.9991 180.198 79.4193 179.909 79.9725C180.096 80.9605 180.738 81.7828 181.168 82.6731C181.363 83.0961 181.834 83.8356 181.72 84.0989C181.182 83.8149 180.359 83.5162 179.912 84.1048C179.395 84.8591 179.877 85.8767 179.418 86.6398C178.726 86.4476 178.577 85.4389 178.2 84.868C177.561 83.6197 177.391 82.0845 176.296 81.1113C175.323 80.1056 174.547 78.9253 173.551 77.9433C172.458 76.7542 172.347 75.077 171.868 73.6068C171.433 72.4325 170.551 71.4534 170.329 70.1903C170.306 70.0897 170.285 69.9892 170.265 69.8886Z" fill="#E5E5E6"/>
<path fill-rule="evenodd" clip-rule="evenodd" d="M117.318 50.6527C118.475 51.1378 119.296 50.4249 120.379 49.8777C121.425 49.3482 121.329 48.6679 122.675 48.3277C122.985 48.2478 123.151 45.1094 123.186 44.9674C123.54 43.5298 123.099 42.7311 124.46 42.385C125.441 42.1366 125.882 41.2048 126.501 40.5777C127.071 39.9979 129.074 41.0924 129.816 41.0924C131.49 41.0924 132.091 41.0717 132.877 41.8674C133.759 42.7607 134.41 42.8376 135.684 43.16C137.138 43.5298 137.506 44.2131 138.488 44.71C139.332 45.136 141.566 44.5769 142.06 44.4527C143.739 44.0267 141.061 42.1395 141.04 42.1277C140.103 41.6514 139.343 41.1841 138.745 40.5777C137.708 39.5276 137.722 39.924 137.722 39.285C137.722 39.0188 134.837 38.4657 137.722 37.735C139.335 37.3268 139.884 37.596 138.745 36.4424C137.775 35.4633 140.999 36.682 141.04 36.7027C142.226 37.3032 142.597 37.5043 143.336 38.2527C144.04 38.9656 140.973 38.3828 140.529 39.285C140.214 39.9269 142.191 40.9681 142.571 41.3527C143.841 42.6394 141.756 43.0831 144.101 43.6777C144.644 43.8138 145.953 41.7993 146.14 41.61C147.282 40.4535 147.67 40.977 147.67 42.1277C147.67 43.1305 145.95 43.6925 147.927 44.1924C149.326 44.5473 149.341 45.1744 148.947 46.7777C148.652 47.9668 148.181 48.4164 148.181 50.135C148.181 51.1999 149.309 51.7116 150.223 51.9424C151.631 52.3003 151.736 52.2707 153.027 51.9424C154.02 51.6909 152.524 54.0366 152.773 55.0424C153.012 56.0096 154.566 56.6012 155.068 57.11C155.98 58.0329 154.332 58.9026 153.792 59.1777C152.498 59.8314 153.164 61.0028 153.538 61.76C154.078 62.8545 154.604 63.1444 155.068 64.085C155.737 65.4427 156.403 65.7326 154.557 66.6673C153.944 66.9779 155.299 68.244 154.814 68.735C153.734 69.8295 153.31 69.3088 154.049 70.7997C154.233 71.1754 156.126 70.5423 157.11 70.5423C158.059 70.5423 157.022 72.5242 156.599 73.385C156.316 73.9588 159 73.385 159.406 73.385C160.442 73.385 161.433 74.6274 160.936 72.61C160.6 71.2523 160.726 70.4477 161.19 69.51C161.289 69.3088 163.866 71.1872 163.997 71.3173C164.718 72.048 164.453 69.1432 163.997 68.2173C163.571 67.3595 163.185 65.9693 162.975 65.1173C162.478 63.1089 164.625 64.6618 165.016 64.86C166.319 65.5196 167.312 64.6973 167.312 66.6673C167.312 67.5784 166.29 68.1996 166.29 69.51C166.29 70.7346 168.048 70.0247 169.096 70.0247C170.355 70.0247 170.627 71.0127 170.627 72.3497C170.627 73.2667 168.807 73.2726 168.585 74.16C168.509 74.4735 169.984 75.9525 170.116 76.485C170.396 77.612 170.116 79.1916 170.116 80.36C170.116 81.4485 171.626 81.6497 172.668 81.6497C173.644 81.6497 174.941 82.2265 175.729 82.4247C176.232 82.5519 175.481 83.8475 175.983 83.9747C178.197 84.5367 177.526 83.9244 177.26 85.01C177.219 85.1727 176.755 87.758 178.399 87.758C179.579 87.758 181.255 88.4531 182.105 88.885C182.71 89.1896 182.105 91.5856 182.105 91.7247C182.105 92.8221 183.916 93.0705 184.401 94.0496C184.918 95.0968 185.242 95.7505 185.677 96.6349C186.18 97.6525 186.568 98.3121 187.208 98.9599C188.177 99.9391 188.434 98.4423 190.012 98.4423C191.083 98.4423 191.288 100.131 191.288 100.51C191.288 101.436 189.638 100.785 190.523 102.575C190.94 103.421 191.332 104.565 191.542 105.417C191.828 106.58 192.053 107.287 192.053 108.775C192.053 110.254 192.307 110.916 192.307 112.392C192.307 113.889 191.799 114.516 191.799 116.007C191.799 117.519 191.527 118.391 191.288 119.367C190.958 120.704 190.765 121.201 190.269 122.207C189.766 123.222 189.43 123.905 188.992 124.792C188.481 125.825 188.043 126.955 187.532 127.99C187.012 129.043 186.375 129.342 185.961 130.182C185.563 130.989 185.356 132.808 185.166 133.575C184.9 134.654 184.322 135.382 183.125 135.382C182.596 135.382 183.323 132.14 182.105 134.607C181.591 135.651 181.983 137.183 181.594 137.967C181.241 138.68 179.83 139.248 179.298 139.517C178.32 140.011 177.648 140.257 176.495 140.55C176.255 140.609 176.749 139.204 176.749 137.967C176.749 136.157 175.834 136.843 175.472 135.382C175.25 134.48 177.099 133.527 177.514 133.317C178.554 132.788 179.81 133.427 179.81 131.767C179.81 129.504 180.484 130.756 180.966 131.732C181.057 131.915 183.405 130.368 183.405 129.717C183.405 128.723 185.116 128.031 185.467 127.321C186.323 125.591 182.318 124.834 181.594 125.567C180.531 126.644 180.563 126.721 179.298 126.082C178.118 125.484 178.834 124.609 177.514 124.275C177.493 124.269 175.688 126.126 175.472 126.342C174.377 127.452 173.442 126.842 174.199 125.307C174.862 123.964 174.541 123.846 173.688 122.982C172.654 121.935 173.366 120.985 173.942 120.4C174.792 119.542 175.434 119.355 176.495 119.625C177.254 119.817 175.408 120.82 174.707 121.175C173.165 121.956 176.865 122.467 177.26 122.467C178.478 122.467 177.353 119.722 176.495 118.85C175.618 117.962 175.49 117.542 174.453 118.592C174.082 118.968 172.844 118.932 172.157 119.625C170.936 120.861 170.116 119.358 170.116 118.332C170.116 117.081 171.22 116.761 172.157 116.525C172.861 116.347 173.685 116.779 174.199 117.3C174.839 117.947 173.051 115.88 172.411 115.232C171.497 114.306 171.471 114.007 171.138 112.65C170.811 111.327 172.335 111.1 173.434 111.1C174.579 111.1 174.453 112.83 174.453 113.942C174.453 115.803 174.894 114.995 175.218 113.682C175.595 112.162 174.818 111.319 174.453 110.582C173.986 109.635 173.358 109.141 172.923 108.257C172.403 107.207 173.98 105.896 172.411 107.482C171.059 108.852 171.734 107.825 172.157 106.967C172.636 105.994 173.022 105.219 173.434 104.385C173.863 103.515 174.213 102.515 174.453 101.542C174.655 100.726 175.621 99.9538 175.983 99.2173C176.465 98.2441 176.351 96.9189 176.749 96.1173C177.374 94.8513 176.909 93.955 178.025 95.085C178.814 95.8836 178.735 97.1082 178.533 97.9246C178.189 99.3267 178.314 99.803 178.533 100.25C178.98 101.152 179.313 98.3861 179.555 97.41C179.804 96.4042 179.827 95.0199 180.064 94.0496C180.502 92.2748 179.59 91.7158 178.533 91.985C177.958 92.1299 178.533 93.1889 178.533 93.7923C178.533 94.656 176.749 93.1475 175.983 93.535C175.268 93.8958 174.99 95.5464 174.707 96.1173C174.167 97.2147 174.713 98.2086 174.964 99.2173C175.145 99.9538 174.535 99.8976 175.218 101.285C175.557 101.968 172.931 101.291 172.411 100.767C170.896 99.2321 171.819 102.406 171.903 102.575C173.028 104.852 170.776 103.24 170.373 102.835C169.681 102.131 168.866 102.341 168.077 101.542C167.773 101.235 166.602 102.368 165.781 102.575C164.26 102.959 164.765 101.303 164.505 100.25C164.271 99.306 162.896 99.0546 162.466 98.185C161.476 96.1824 161.231 98.0903 161.444 98.9599C161.789 100.35 162.209 100.767 161.701 101.8C160.968 103.285 161.783 103.847 159.66 104.385C159.096 104.527 158.506 106.473 158.383 106.967C158.056 108.29 158.331 108.813 158.64 110.067C158.757 110.549 157.823 112.082 157.618 112.907C157.227 114.495 158.094 115.273 158.64 116.007C159.435 117.081 159.464 117.832 159.149 119.107C158.918 120.045 161.079 120.142 161.955 120.142C163.626 120.142 164.231 120.122 165.016 120.917C166.091 122.006 164.61 122.751 166.547 123.242C168.118 123.639 167.99 124.183 168.331 125.567C168.433 125.984 167.321 127.875 167.055 128.407C166.643 129.244 166.976 131.321 166.801 132.025C166.453 133.433 166.328 133.938 166.036 135.125C165.954 135.462 167.055 136.938 167.055 137.967C167.055 139.408 167.078 139.73 166.547 140.807C165.995 141.922 166.117 142.531 164.759 142.875C162.905 143.345 164.219 141.647 164.505 141.067C165.066 139.931 164.967 139.201 165.27 137.967C165.501 137.033 163.144 137.535 162.721 136.675C162.709 136.654 161.517 137.929 160.936 138.225C160.244 138.574 159.438 136.45 159.149 136.157C156.838 133.817 157.566 136.104 158.383 136.932C159.248 137.808 159.163 138.683 158.895 139.775C158.646 140.783 156.815 139.218 156.088 138.482C154.879 137.257 154.709 137.813 155.834 136.675C156.701 135.796 157.744 136.402 157.364 134.867C157.148 133.995 155.673 135.858 154.814 135.642C154.046 135.447 152.732 131.501 154.557 126.342C154.846 125.526 156.704 126.256 157.469 125.869C158.354 125.422 158.673 125.419 159.406 125.05C160.869 124.307 159.143 123.08 159.119 122.982C159.049 122.701 157.662 121.476 157.364 121.175C156.488 120.287 157.23 119.639 156.345 121.432C155.854 122.423 155.32 122.985 154.303 123.242C153.001 123.571 153.027 121.828 153.027 120.657C153.027 118.858 152.58 118.394 151.753 117.557C151.09 116.888 149.998 118.131 149.201 118.332C147.486 118.767 147.67 117.368 147.67 116.007C147.67 115.049 147.916 113.641 147.67 112.65C147.539 112.114 146.222 112.907 145.632 112.907C144.726 112.907 146.777 111.49 147.416 110.842C148.371 109.875 150.731 109.541 150.731 108C150.731 106.63 150.74 105.663 150.988 105.16C151.432 104.258 149.072 104.577 148.181 104.125C147.083 103.569 147.188 104.329 146.651 105.417C146.163 106.402 144.776 104.293 144.609 104.125C143.254 102.749 144.206 103.35 142.06 103.35C141.811 103.35 140.903 103.731 140.018 102.835C139.002 101.806 139.746 101.031 140.783 100.767C142.29 100.386 142.556 102.261 142.571 102.317C142.81 103.293 143.348 100.454 143.59 99.4746C143.648 99.235 141.44 96.7444 140.529 97.6673C139.925 98.2796 140.658 99.4776 140.275 100.25C139.828 101.152 139.253 98.4157 139.253 97.41C139.253 96.3687 137.6 96.6142 137.979 95.085C138.143 94.4164 138.835 93.6503 138.488 92.2423C138.35 91.6803 140.646 92.4612 140.275 90.9497C140.039 89.9913 139.262 89.1482 138.745 88.6247C137.772 87.6396 137.176 87.4799 137.468 86.2997C137.655 85.5483 139.621 87.3054 138.488 85.01C138.035 84.09 137.384 83.2855 136.957 82.4247C136.367 81.2267 135.938 81.2947 135.938 80.0997C135.938 79.4075 137.495 80.3334 137.979 79.8423C138.964 78.8455 138.803 78.6739 139.51 80.0997C140.38 81.8656 140.529 80.0139 140.529 78.81C140.529 77.3458 141.207 76.8754 142.06 76.2247C142.398 75.9673 142.778 77.3044 143.079 76.9997C143.984 76.0857 144.139 75.9673 145.375 75.9673C145.827 75.9673 146.487 77.8575 148.181 76.9997C149.265 76.4524 148.105 75.148 147.927 74.4173C147.884 74.2487 145.562 75.6153 145.375 75.71C143.517 76.6506 144.288 74.8137 144.609 74.16C145.331 72.6987 143.611 73.9618 142.825 74.16C141.677 74.4499 140.979 74.6747 139.51 74.6747C138.406 74.6747 137.816 73.9233 136.703 73.6423C135.325 73.2933 134.551 72.9383 133.388 72.3497C132.497 71.9001 131.56 71.3085 130.581 71.06C129.562 70.8026 129.074 70.0336 128.032 69.7673C126.492 69.3769 127.856 70.8825 128.286 71.3173C129.39 72.4355 127.158 72.61 126.244 72.61C124.425 72.61 125.911 71.0984 126.501 70.7997C126.542 70.779 124.705 69.4982 124.205 68.9923C123.099 67.8713 123.329 68.4037 122.929 70.0247C122.733 70.8263 121.031 69.9685 120.633 71.5747C120.458 72.2905 119.299 70.9801 118.595 70.7997C117.701 70.5749 117.911 72.4355 116.553 71.06C115.572 70.0661 115.499 69.8945 115.277 68.9923C115.005 67.8949 117.476 69.51 118.595 69.51C119.617 69.51 118.39 67.3359 118.849 66.41C119.17 65.7563 118.647 63.8661 118.849 63.0527C118.957 62.6119 120.096 61.8724 120.379 60.7277C120.601 59.8255 120.026 59.0593 120.125 58.66C120.239 58.1926 121.145 57.533 121.145 55.8174C121.145 54.4951 119.515 55.3027 118.338 55.3027C116.474 55.3027 118.028 55.4476 117.064 53.4924C116.545 52.4452 116.889 51.7383 117.318 50.6527Z" fill="url(#paint5_radial_26_160)"/>
<path fill-rule="evenodd" clip-rule="evenodd" d="M192.307 70.7997C191.311 68.7794 193.808 75.0651 194.349 77.26C194.886 79.44 192.459 77.5676 192.053 77.26C191.951 77.1831 192.839 79.863 193.072 80.0997C193.893 80.9309 192.713 82.2738 192.307 82.685C191.79 83.2085 191.098 84.3592 190.777 85.01C190.242 86.0926 189.039 85.785 187.716 85.785C185.99 85.785 185.812 84.6284 184.912 83.7173C183.998 82.7944 184.708 82.0638 183.382 81.3923C182.438 80.9161 181.702 79.798 181.34 79.0673C180.861 78.0941 180.262 77.6563 179.81 76.7423C178.957 75.0148 179.626 75.7455 180.575 76.2247C182.514 77.2067 181.051 74.864 180.829 74.4173C180.096 72.9294 179.328 73.5832 180.064 72.0923C180.607 70.9949 181.763 71.1458 180.064 70.285C178.96 69.7259 178.533 69.4035 178.533 67.96C178.533 66.9158 179.517 66.1881 180.064 65.635C180.952 64.7358 180.928 63.7271 181.594 63.0527C182.368 62.2688 183.361 62.2777 184.655 62.2777C186.215 62.2777 186.553 63.1089 187.462 63.5673C188.253 63.9696 188.729 65.1085 189.246 65.635C190.026 66.4248 190.12 67.2944 190.777 67.96C191.79 68.9835 192.047 70.4713 193.329 72.0923" fill="#504F55"/>
<path fill-rule="evenodd" clip-rule="evenodd" d="M143.844 21.7204C142.615 22.031 143.228 24.3471 143.59 25.0777C144.192 26.2964 142.632 25.2877 141.806 25.0777C140.666 24.7878 140.555 24.1666 138.999 24.5601C137.296 24.9919 136.7 24.2938 137.468 25.8527C138.184 27.2992 135.812 26.3053 135.427 26.1101C134.629 25.7078 133.642 23.6224 133.642 26.1101C133.642 27.382 132.585 27.6689 131.601 27.9204C129.98 28.3286 129.816 28.089 129.816 29.9851C129.816 31.6622 129.512 31.3812 128.286 30.7601C127.243 30.2335 126.46 30.2986 125.225 29.9851C124.094 29.6981 123.326 29.4112 122.421 28.9527C121.334 28.4025 121.489 27.7488 120.125 27.4027C119.059 27.1335 118.341 26.5005 117.573 26.1101C116.565 25.6013 115.969 25.2611 115.023 24.3027C113.89 23.155 113.615 22.8858 114.512 21.9777C115.794 20.6791 114.269 21.1998 113.238 21.4601C112.292 21.6997 111.775 22.4776 110.686 22.7527C109.228 23.1225 108.968 22.7705 108.647 21.4601C108.285 20.0018 109.771 20.0935 107.882 19.1357C106.822 18.5991 104.888 18.7008 103.545 18.361C102.216 18.0243 101.64 17.6203 100.484 17.3274C99.292 17.0257 98.3019 17.0405 97.1687 17.3274C96.088 17.6013 95.4221 18.3509 94.3619 18.6192C93.3601 18.8733 92.5715 19.5255 91.8121 19.9101C90.6993 20.475 89.4551 20.0106 88.7512 19.6527C87.5216 19.0298 86.7506 19.7622 85.9445 20.1704C84.3205 20.9927 84.8988 20.4543 85.6904 19.6527C86.5374 18.7934 86.7798 18.7304 88.2401 18.361C90.2466 17.8531 87.2062 17.8442 86.4556 17.8442C84.8609 17.8442 84.5542 18.3255 83.3947 18.6192C81.7007 19.0481 81.9782 19.0641 81.099 18.6192C80.3776 18.2542 85.4567 17.5034 81.3531 16.811C79.8344 16.5542 81.1107 15.2494 81.6101 14.7442C81.9694 14.3777 79.2502 14.486 78.5493 14.486C76.5515 14.486 76.4756 14.1949 75.9966 13.711C75.8827 13.5953 79.1217 13.1942 79.5686 13.1942C80.6872 13.1942 81.7737 12.636 82.6295 12.4192C84.2125 12.0181 82.7901 13.711 84.9251 13.711C85.3399 13.711 86.219 12.0917 86.9667 11.9027C87.8312 11.6829 88.2839 12.2145 89.5165 11.9027C90.9038 11.5516 91.5142 12.182 92.5773 11.6442C93.3659 11.2449 93.7661 10.2669 94.616 9.83596C96.0179 9.12722 95.2585 11.4055 95.3812 11.9027C95.4747 12.274 97.1132 12.7082 97.4228 13.9692C97.6447 14.869 99.0846 12.7112 99.9725 12.936C100.849 13.1578 101.015 13.5764 102.525 13.1942C103.515 12.9434 104.885 12.9197 105.84 12.6777C107.117 12.3544 106.456 10.9783 107.882 12.4192C108.927 13.4779 107.715 14.1431 109.412 15.0024C110.373 15.489 111.632 15.565 112.473 15.7774C113.542 16.0484 114.176 16.6397 115.023 17.0692C115.919 17.5227 116.165 18.4225 117.064 18.8774C118.91 19.8125 117.657 17.6723 117.318 17.3274C116.004 15.9975 118.177 15.689 118.849 15.5192C119.93 15.2456 122.719 17.6081 123.694 18.1024C124.673 18.5976 125.648 16.9003 125.99 16.5524C126.478 16.0578 128.873 16.9597 129.305 17.0692C130.841 17.4579 131.668 17.8486 131.347 16.5524C131.098 15.5432 133.902 16.8346 134.153 17.8442C134.267 18.3092 137.054 18.1024 137.722 18.1024C138.181 18.1024 139.638 19.4604 140.018 19.6527C141.245 20.2739 141.525 20.4543 142.314 19.6527C143.713 18.2376 143.844 21.3595 143.844 21.7204Z" fill="url(#paint6_radial_26_160)"/>
<path fill-rule="evenodd" clip-rule="evenodd" d="M10.7002 102.962C9.22528 103.509 8.80528 105.334 8.87071 106.766C8.9519 108.044 8.80616 109.455 9.63476 110.532C10.2195 111.472 11.6941 112.159 12.5759 111.23C13.5803 109.934 13.1936 108.186 13.2345 106.666C13.3037 105.053 12.4226 103.208 10.7002 102.962Z" fill="#4F4F4F"/>
<path fill-rule="evenodd" clip-rule="evenodd" d="M100.356 22.5586C100.356 23.3789 99.0999 24.044 97.5504 24.044C96.0008 24.044 94.7448 23.3789 94.7448 22.5586C94.7448 21.7383 96.0009 21.0732 97.5504 21.0732C99.1 21.0732 100.356 21.7383 100.356 22.5586Z" fill="#4D4D53"/>
<path fill-rule="evenodd" clip-rule="evenodd" d="M104.056 98.6996C104.666 97.8122 105.265 96.6409 105.586 95.3423C105.972 93.7716 106.985 94.5643 107.371 95.3423C107.955 96.5284 108.028 96.984 109.412 96.6349C111.121 96.2001 108.72 94.7329 108.39 94.5673C107.011 93.8692 107.412 93.2332 108.136 92.4996C109.17 91.4525 109.611 91.9287 110.432 92.7599C110.8 93.1297 111.261 95.2151 111.451 95.5996C111.904 96.5166 112.239 93.8396 111.962 93.2746C111.206 91.7453 113.434 91.84 114.004 91.985C115.738 92.4227 114.398 95.573 114.258 95.8599C113.633 97.126 113.387 97.197 114.004 98.4423C114.55 99.5515 115.075 99.7763 114.769 101.025C114.705 101.282 111.737 101.285 111.197 101.285C111.013 101.285 109.298 102.947 109.155 103.092C108.238 104.024 108.463 104.559 107.117 104.9C105.899 105.207 105.312 103.861 104.31 103.61C103.311 103.356 103.033 102.09 103.033 101.025C103.033 100.022 103.396 99.8118 104.056 98.6996Z" fill="#5D5C63"/>
<path fill-rule="evenodd" clip-rule="evenodd" d="M158.894 44.4527C159.368 44.9319 160.892 44.4083 161.701 45.2277C162.978 46.5233 160.661 47.4255 160.171 47.5527C158.713 47.9195 158.748 47.2569 158.129 46.0027C157.866 45.4673 155.644 45.2928 157.11 46.7777C158.378 48.0615 157.262 47.81 155.579 47.81C155.334 47.81 156.853 49.3571 157.11 49.6174C157.32 49.8333 154.379 49.786 154.049 49.6174C152.898 49.0376 152.568 48.7891 152.262 47.5527C151.897 46.0737 153.506 45.985 151.496 44.9674C151.455 44.9467 151.683 46.7067 150.477 45.4851C149.186 44.1776 151.166 43.4174 149.201 43.4174C147.711 43.4174 148.462 44.3373 147.162 43.6777C146.543 43.3642 148.903 41.6544 148.947 41.6101C149.259 41.2935 151.721 40.98 152.007 40.8351C152.895 40.3854 150.717 39.2259 150.477 38.2527C150.351 37.7439 151.505 38.1196 152.007 37.9924C152.606 37.8416 152.916 38.1403 153.792 39.0277C154.423 39.6637 154.554 36.6968 156.599 38.7674C157.084 39.2584 155.86 40.344 156.345 40.8351C157.072 41.5716 157.659 41.6663 155.834 42.1277C154.975 42.3436 158.664 44.358 158.894 44.4527Z" fill="#5F5E64"/>
<path fill-rule="evenodd" clip-rule="evenodd" d="M195.625 87.335C196.425 86.5215 195.66 89.8788 194.86 90.6923C194.019 91.5412 195.091 93.2273 195.368 93.7923C195.911 94.8927 195.464 96.1794 195.114 96.8923C194.603 97.9276 194.302 99.1463 194.095 99.9923C193.803 101.167 193.329 101.4 193.329 103.092C193.329 104.057 195.368 103.228 195.368 104.9C195.368 106.521 196.644 104.982 196.644 103.61C196.644 102.619 195.368 101.844 195.368 100.25V96.3747C195.368 95.715 197.637 97.8714 196.39 95.3423C195.719 93.9846 197.535 96.1143 197.664 96.3747C198.16 97.3804 197.41 94.1413 197.41 93.0173C197.41 92.4227 198.505 91.7779 198.175 90.4349C198.137 90.2782 195.739 87.4799 195.625 87.335Z" fill="#5F5E64"/>
<path fill-rule="evenodd" clip-rule="evenodd" d="M173.434 131.507C173.434 130.353 172.411 133.575 171.903 134.607C171.275 135.876 172.011 135.861 173.177 136.157C174.681 136.539 174.748 136.855 174.199 137.967C173.737 138.899 173.063 139.491 172.668 140.292C172.131 141.378 171.1 141.464 170.627 141.582C169.704 141.816 171.477 139.86 171.903 139C172.525 137.739 171.515 136.666 171.138 135.9C170.606 134.82 170.542 133.918 170.881 132.542C171.526 129.927 173.486 131.596 172.668 130.217C172.411 129.785 173.434 131.007 173.434 131.507Z" fill="#69686F"/>
<path fill-rule="evenodd" clip-rule="evenodd" d="M169.608 34.8924C169.508 34.7268 167.262 33.5761 166.801 33.3424C166.354 33.1176 165.603 31.0973 165.27 30.7601C164.412 29.8904 163.515 29.355 162.721 28.9527C161.678 28.4232 161.693 27.6571 160.679 27.1454C158.696 26.1397 159.128 28.1363 159.406 28.6924C159.654 29.2012 161.608 29.8105 161.955 29.9851C163.261 30.6477 163.352 30.8961 162.467 31.7924C161.479 32.7922 162.756 34.1914 162.975 34.6351C163.565 35.8301 163.682 36.1259 164.505 36.9601C165.86 38.3326 165.928 37.0015 165.525 36.1851C165.034 35.1853 164.234 35.1172 163.74 34.1174C162.893 32.3988 164.301 32.5822 165.27 32.8277C165.805 32.9638 166.988 34.3067 167.312 34.6351C167.972 35.3036 168.58 35.1024 169.608 34.8924Z" fill="#5F5E64"/>
<path fill-rule="evenodd" clip-rule="evenodd" d="M172.411 34.5049C171.407 33.0318 169.245 30.5826 170.116 34.1174C170.221 34.5434 171.988 34.4191 172.411 34.5049Z" fill="#5F5E64"/>
<path fill-rule="evenodd" clip-rule="evenodd" d="M43.3492 166.382C43.0746 165.267 41.0477 166.122 40.0342 165.607C38.5622 164.862 39.0558 166.808 39.269 167.675C39.6195 169.1 42.5139 168.707 42.8381 168.707C44.1641 168.707 43.8194 167.574 43.3492 166.382Z" fill="#56555B"/>
<path fill-rule="evenodd" clip-rule="evenodd" d="M43.6033 160.957C45.0753 160.957 44.8796 158.614 44.8796 157.082C44.8796 155.576 43.9245 155.801 43.6033 154.5C43.2411 153.026 46.3283 154.677 46.41 154.757C47.0146 155.369 48.1303 154.29 48.9598 154.5C49.7893 154.71 48.3231 156.307 48.7057 157.082C49.0387 157.753 51.9477 156.585 52.0207 156.564C53.4051 156.215 51.7432 158.138 51.5096 158.375C50.5808 159.315 51.5651 160.034 52.0207 160.957C52.7859 162.504 51.752 162.77 50.7443 163.025C50.169 163.169 49.1467 161.078 48.9598 160.7C48.5071 159.777 47.5024 159.481 46.9212 158.889C46.0479 158.008 45.7996 159.351 45.3907 160.182C45.0987 160.768 44.2049 160.714 43.6033 160.957Z" fill="#6B6A71"/>
<path fill-rule="evenodd" clip-rule="evenodd" d="M56.1009 158.889C55.4291 160.253 57.9555 160.717 58.9077 160.957C59.9007 161.208 58.9018 158.863 58.6536 157.857C58.0519 155.422 56.9567 159.064 56.1009 158.889Z" fill="#6B6A71"/>
<path fill-rule="evenodd" clip-rule="evenodd" d="M64.2642 157.857C63.9546 156.603 66.1831 159.605 67.3251 160.182C68.2129 160.632 66.8402 158.644 66.3057 158.375C65.4149 157.925 65.5843 157.857 64.2642 157.857Z" fill="#6B6A71"/>
<path fill-rule="evenodd" clip-rule="evenodd" d="M66.8139 163.282C65.2251 162.477 64.5884 162.788 65.0294 164.575C65.339 165.829 67.3835 164.687 67.8362 164.575C68.7942 164.329 69.7405 165.796 70.3859 166.125C71.4111 166.642 72.9532 165.598 73.4468 165.35C74.2704 164.932 72.1675 164.702 71.4052 164.314C70.1902 163.699 69.7609 163.282 68.3444 163.282H66.8139Z" fill="#6B6A71"/>
<path fill-rule="evenodd" clip-rule="evenodd" d="M47.4294 169.739C45.969 169.739 45.8989 168.757 45.8989 171.55C45.8989 173.076 47.0584 173.567 47.4294 172.064C47.5579 171.541 47.4294 170.103 47.4294 169.739Z" fill="#6B6A71"/>
<path fill-rule="evenodd" clip-rule="evenodd" d="M32.636 153.725C32.82 152.976 30.5945 153.988 30.5945 154.757C30.5945 155.328 32.5543 156.135 32.8901 156.307C33.6554 156.694 32.8025 154.574 32.636 153.725Z" fill="#6B6A71"/>
<path fill-rule="evenodd" clip-rule="evenodd" d="M32.6361 160.439C33.6262 160.942 31.3452 158.602 30.8516 157.6C29.8001 155.473 29.4321 158.312 29.5752 158.889C29.9082 160.235 29.5986 160.241 28.81 160.439C27.5716 160.753 31.5438 161.105 32.6361 160.439C33.451 159.945 32.2243 163.048 33.1472 163.282C34.6747 163.669 34.1461 161.315 32.6361 160.439Z" fill="#6B6A71"/>
<path fill-rule="evenodd" clip-rule="evenodd" d="M35.4428 141.325C35.9685 141.458 34.2891 142.082 34.4206 142.617C34.5578 143.164 36.6432 143.741 36.9733 143.907C37.3821 144.117 37.6713 146.735 37.7385 147.007C37.9371 147.817 39.0119 149.598 39.0119 147.525C39.0119 145.972 38.454 145.62 37.9926 144.682C37.3413 143.363 37.058 142.635 35.4428 141.325Z" fill="#6B6A71"/>
<path fill-rule="evenodd" clip-rule="evenodd" d="M14.5263 126.342C14.101 125.481 14.8794 128.691 15.8015 128.925C17.5778 129.374 14.5105 126.262 14.271 125.05C14.0394 123.878 13.0297 123.31 12.4856 122.207C11.5857 120.385 9.82836 122.1 11.9757 124.275C12.8194 125.129 13.3647 125.402 14.5263 126.342Z" fill="#6B6A71"/>
<path fill-rule="evenodd" clip-rule="evenodd" d="M29.064 123.242C29.6365 123.819 27.9396 124.837 28.2988 125.567C28.9034 126.789 28.8888 127.295 28.0447 128.15C27.557 128.644 29.0261 130.628 29.5752 128.407C29.949 126.898 29.9724 126.656 31.1056 126.082C31.313 125.978 29.5868 124.121 29.064 123.242Z" fill="#6B6A71"/>
<path fill-rule="evenodd" clip-rule="evenodd" d="M6.49156 99.735C4.74061 101.332 6.04937 102.906 6.23658 103.285C6.44921 103.716 7.30351 102.788 7.63939 102.447C7.99688 102.084 7.42618 100.853 7.38441 100.767C7.11162 100.214 7.33739 100.075 6.49156 99.735Z" fill="#56555B"/>
<path fill-rule="evenodd" clip-rule="evenodd" d="M121.399 37.735C120.806 38.7674 121.384 40.4505 119.868 40.835C119.366 40.9622 117.316 39.9299 117.064 39.8027C115.841 39.1815 116.413 38.3503 114.769 38.7674C113.983 38.9685 114.144 41.5568 114.003 42.1277C113.752 43.1364 113.761 44.5059 114.003 45.485C114.185 46.2275 115.37 47.1297 115.788 47.5527C116.65 48.4223 117.064 49.1086 117.318 50.135C117.555 51.0964 117.649 52.7706 117.83 53.4924C117.868 53.6551 116.693 55.7937 116.553 56.0777C115.8 57.604 114.456 55.7612 114.003 55.3027C113.247 54.5365 112.604 54.0426 111.451 53.7527C110.484 53.5072 109.955 52.4689 108.901 52.2027C107.414 51.824 106.848 52.7736 106.605 53.7527C106.217 55.3263 107.54 55.4713 108.136 56.0777C109.17 57.1248 108.983 57.5419 108.136 58.4027C107.362 59.1865 105.747 57.2727 105.586 57.11C104.973 56.4888 104.739 54.9743 104.564 54.2674C104.342 53.3652 102.919 53.377 102.268 52.7174C101.369 51.8063 102.332 50.0078 102.525 49.6174C103.217 48.2153 106.889 49.36 108.136 49.36C109.038 49.36 109.114 47.7035 109.92 47.2924C111.568 46.4612 110.706 47.035 108.901 47.035C107.949 47.035 106.921 47.8603 106.094 48.0674C104.415 48.4933 105.373 46.1742 105.586 45.7424C106.29 44.3196 106.132 43.9705 105.329 43.16C104.669 42.4915 103.431 43.3908 102.525 43.16C101.702 42.953 100.942 41.8141 100.484 41.3527C99.6337 40.4919 98.8831 40.2464 98.188 39.5424C97.119 38.4598 99.0437 37.6907 99.4643 37.4777C100.399 37.0044 101.579 36.96 102.779 36.96C104.342 36.96 104.564 36.401 104.564 34.8924C104.564 33.4814 103.58 33.3424 105.84 33.3424C106.851 33.3424 107.493 34.3452 108.647 34.635C108.989 34.7208 110.706 33.86 111.708 33.86C113.043 33.86 113.971 33.7299 114.258 32.5674C114.801 30.3666 116.01 33.724 116.042 33.86C116.489 35.6674 116.068 35.694 117.064 36.7027C118.017 37.667 118.726 35.3864 118.849 34.8924C119.199 33.4755 121.083 36.1969 121.145 36.4424C121.25 36.8683 121.314 37.3061 121.399 37.735ZM106.232 51.1674C106.232 51.8802 105.487 52.46 104.564 52.46C103.644 52.46 102.896 51.8802 102.896 51.1674C102.896 50.4545 103.644 49.8777 104.564 49.8777C105.487 49.8777 106.232 50.4545 106.232 51.1674ZM113.238 45.0325C113.238 45.8518 112.724 46.5174 112.09 46.5174C111.457 46.5174 110.943 45.8518 110.943 45.0325C110.943 44.2131 111.457 43.5475 112.09 43.5475C112.724 43.5475 113.238 44.2131 113.238 45.0325Z" fill="#A8A7AA"/>
<path fill-rule="evenodd" clip-rule="evenodd" d="M129.813 24.772C129.558 25.9547 127.932 26.5994 126.18 26.2119C124.428 25.8245 123.215 24.5517 123.47 23.3689C123.725 22.1862 125.352 21.5415 127.103 21.929C128.855 22.3164 130.068 23.5892 129.813 24.772Z" fill="#959595" stroke="#B9B9B9" stroke-width="1.98696"/>
<path fill-rule="evenodd" clip-rule="evenodd" d="M152.714 51.8723C151.548 52.6065 149.678 51.7978 148.538 50.066C147.398 48.3341 147.419 46.3349 148.585 45.6007C149.751 44.8664 151.621 45.6751 152.761 47.407C153.901 49.1388 153.88 51.138 152.714 51.8723Z" fill="#A7A7A7" stroke="#CACACA" stroke-width="1.73248"/>
<path fill-rule="evenodd" clip-rule="evenodd" d="M129.621 33.1298C129.108 33.8818 127.843 33.8696 126.797 33.1026C125.75 32.3355 125.318 31.1041 125.831 30.3521C126.345 29.6001 127.609 29.6123 128.656 30.3793C129.702 31.1464 130.134 32.3778 129.621 33.1298Z" fill="#959595" stroke="#B9B9B9" stroke-width="2.69447"/>
<path fill-rule="evenodd" clip-rule="evenodd" d="M189.494 121.7C188.509 121.231 188.24 119.259 188.892 117.295C189.545 115.332 190.873 114.12 191.858 114.589C192.844 115.058 193.113 117.03 192.46 118.993C191.808 120.957 190.48 122.169 189.494 121.7Z" fill="#CACACA"/>
<path fill-rule="evenodd" clip-rule="evenodd" d="M181.749 141.003C180.85 140.381 180.895 138.391 181.849 136.558C182.802 134.725 184.304 133.744 185.203 134.366C186.102 134.988 186.057 136.978 185.104 138.811C184.15 140.644 182.648 141.626 181.749 141.003Z" fill="white" fill-opacity="0.79"/>
<path fill-rule="evenodd" clip-rule="evenodd" d="M125.201 76.6786C125.201 77.3847 124.636 77.9572 123.938 77.9572C123.241 77.9572 122.676 77.3847 122.676 76.6786C122.676 75.9724 123.241 75.3999 123.938 75.3999C124.636 75.3999 125.201 75.9724 125.201 76.6786Z" fill="#E7E6E8" stroke="#A9A9A9" stroke-width="2.38133"/>
<path fill-rule="evenodd" clip-rule="evenodd" d="M126.671 130.679C126.437 131.022 126.124 131.294 125.838 131.59C125.441 132.001 125.023 132.409 124.749 132.918C124.62 133.16 124.527 133.495 124.708 133.737C124.892 133.933 125.196 133.912 125.435 133.864C126.177 133.702 126.822 133.075 126.942 132.306C127.056 131.631 126.822 130.516 126.671 130.679Z" fill="#ECECED"/>
<path fill-rule="evenodd" clip-rule="evenodd" d="M137.471 149.929C138.844 149.231 139.676 148.551 140.716 149.929C141.578 151.672 138.277 152.189 137.109 152.485C135.532 152.884 134.51 153.618 133.143 154.313C131.463 155.162 133.812 152.879 134.586 152.485C135.879 151.828 136.096 150.625 137.471 149.929Z" fill="url(#paint7_radial_26_160)"/>
<path fill-rule="evenodd" clip-rule="evenodd" d="M150.276 105.905C151.315 105.385 151.578 108.511 150.1 109.372C148.783 110.842 146.117 110.842 145.6 113.058C144.989 114.711 144.352 116.693 145.892 118.078C146.663 119.761 148.482 119.775 150.057 119.956C152.206 119.551 152.673 121.926 153.754 123.26C155.334 123.358 156.885 118.477 158.933 121.577C160.305 122.577 160.002 125.55 158.562 126.055C157.241 126.706 155.41 125.517 154.861 127.079C154.914 128.478 153.626 130.738 153.669 132.779C154.823 134.095 154.189 133.095 154.303 135.051C154.905 136.364 156.225 138.077 154.724 138.556C153.152 139.446 152.77 142.008 151.251 142.981C149.975 144.348 148.249 145.143 146.955 146.486C145.933 147.255 143.587 148.539 142.74 147.542C143.739 146.131 145.164 145.078 146.417 143.904C147.799 143.111 148.85 141.884 150.214 141.076C151.491 140.405 152.717 138.5 151.704 137.157C150.591 136.033 148.342 135.888 148.176 133.968C147.504 132.004 149.712 130.809 149.554 128.922C149.633 127.963 148.698 124.931 148.114 127.227C147.995 128.395 146.584 129.149 146.371 127.564C145.573 125.798 146.014 123.384 144.507 122.006C142.983 121.751 141.382 122.34 139.828 122.414C137.819 122.926 137.147 125.082 136.157 126.656C134.232 127.818 134.305 124.011 134.428 122.819C134.583 121.485 134.095 118.081 136.408 119.308C137.763 119.959 140.503 122.038 140.786 119.202C141.502 117.24 140.325 115.469 138.298 115.291C136.189 114.711 138.345 112.23 138.981 111.174C140.164 110.171 140.29 108.254 141.677 107.512C143.362 107.168 144.98 108.142 146.639 108.044C147.778 107.698 149.134 106.246 150.276 105.905Z" fill="#ECECED"/>
<path fill-rule="evenodd" clip-rule="evenodd" d="M131.212 97.1496C130.564 96.2977 127.748 94.9104 127.211 94.8483C126.463 94.798 125.713 94.7359 124.977 94.5791C124.728 94.9578 124.985 95.4991 125.032 95.925C125.231 96.8598 125.347 100.214 125.099 100.954C124.851 101.619 124.644 102.32 124.673 103.039C124.941 103.607 127.033 105.272 127.655 105.583C128.192 105.695 128.423 105.053 128.61 104.663C128.922 104.003 130.64 102.687 131.043 102.397C131.793 101.965 131.893 100.983 131.846 100.196C131.808 99.5338 131.361 97.4307 131.212 97.1496Z" fill="#ECECED"/>
<path fill-rule="evenodd" clip-rule="evenodd" d="M125.386 114.673C125.981 114.788 125.961 115.596 125.829 116.066C125.596 117.016 122.956 118.282 122.757 118.708C122.31 119.915 122.132 121.204 122.114 122.488C122.076 123.207 119.471 124.423 119.086 123.869C118.966 123.213 120.794 119.707 120.879 118.397C121.037 117.107 120.482 115.892 120.266 114.646C120.131 113.173 120.82 111.789 121.495 110.535C122.062 110.088 124.673 113.484 125.386 114.673Z" fill="#ECECED"/>
<path fill-rule="evenodd" clip-rule="evenodd" d="M118.893 132.575C119.071 132.371 118.937 132.06 118.659 132.184C117.967 132.362 117.327 132.705 116.658 132.95C115.981 133.196 115.271 133.48 114.538 133.406C114.161 133.344 113.849 133.104 113.516 132.933C112.984 132.625 112.45 132.217 112.263 131.599C112.161 131.25 112.052 130.895 112.012 130.534C112.099 130.208 112.482 130.534 112.66 130.634C113.58 131.253 114.412 132.028 115.446 132.454C115.896 132.649 116.393 132.554 116.866 132.575H118.893Z" fill="#ECECED"/>
<path fill-rule="evenodd" clip-rule="evenodd" d="M86.7886 166.184C85.1034 164.048 82.8778 160.401 80.6581 157.966C77.8601 155.156 75.8798 151.704 74.2209 148.122C72.4393 145.555 71.0198 140.739 68.9636 139.458C69.1564 141.384 66.4927 142.555 69.5887 143.451C72.8073 144.88 71.4112 149.19 74.1975 150.914C75.6958 154.088 77.6293 157.085 79.7381 159.901C81.1984 161.679 85.2757 164.77 84.9661 166.057C83.5904 162.578 79.5395 160.688 76.0463 160.563C73.3009 161.868 78.8239 163.303 80.1674 162.77C81.9344 162.764 85.5181 166.045 81.876 164.518C79.7702 166.145 77.5505 162.584 75.7981 164.092C76.3851 165.196 81.1429 165.687 79.9308 166.287C78.4763 166.329 74.8985 163.788 75.0737 166.376C76.8641 167.482 79.7381 166.707 81.0611 168.089C80.036 169.683 78.4968 169.47 77.1737 170.325C76.8174 173.088 82.3754 170.508 79.4694 172.884C76.2975 176.025 82.983 172.866 82.6558 173.043C80.8333 175.223 83.4795 174.567 84.2768 174.481C82.9158 177.469 80.8596 179.992 79.2153 182.808C77.2672 185.224 75.7601 188.014 73.444 190.114C72.3721 192.445 75.5235 189.162 76.1018 188.543C79.297 186.576 81.2422 183.148 83.1816 180.069C84.2038 178.288 85.5269 175.933 86.6397 174.632C88.43 177.208 86.4878 180.394 87.1508 183.538C89.7502 185.417 86.479 188.736 87.8488 190.431C92.3817 190.652 90.7198 185.624 90.5797 182.888C90.124 181.136 91.8034 179.578 92.3992 181.95C92.2182 183.562 93.4273 184.798 93.4244 182.5C93.366 180.959 93.5967 180.072 94.0407 182.16C94.4613 183.331 97.0636 187.694 96.5291 183.902C96.5583 181.959 93.4945 178.971 95.8427 177.628C97.9252 178.817 99.5695 180.305 97.6185 182.577C95.5507 183.6 99.3738 186.949 100.393 184.704C102.368 185.071 103.025 183.414 103.682 182.213C106.021 184.299 110.303 182.133 111.664 180.137C110.572 180.285 107.531 178.832 110.417 179.338C111.629 179.835 114.783 180.424 112.315 178.661C112.64 177.119 116.515 179.004 118.078 178.791C117.999 176.747 113.831 177.705 115.073 174.667C114.29 172.857 111.255 178.149 111.553 174.428C110.513 172.112 109.465 175.454 110.026 176.492C107.987 175.374 108.11 179.956 107.663 176.963C108.273 175.448 109.894 172.65 108.67 171.319C107.4 172.801 104.608 172.54 103.314 171.913C106.489 171.869 109.582 171.02 112.605 172.203C115.189 172.174 116.302 170.298 117.821 168.775C119.81 168.917 116.962 163.737 116.267 166.66C115.376 169.905 112.73 168.822 110.598 167.828C109.792 168.544 106.325 169.361 106.643 168.568C109.19 167.698 112.762 168.009 114.509 166.246C114.018 165.415 116.165 163.743 114.696 163.933C116.235 161.909 117.459 165.944 118.893 163.081C122.328 161.974 126.139 161.667 129.346 160.084C131.166 158.466 136.093 157.753 136.046 155.452C132.868 155.709 130.289 159.522 126.636 159.371C123.405 161.066 119.912 162.605 116.188 162.531C114.941 162.613 111.381 162.652 114.564 161.8C117.211 161.622 121.06 162.093 122.599 159.431C121.58 157.262 116.661 161.998 116.057 159.543C118.426 157.434 120.937 155.594 123.353 153.612C125.202 152.32 129.241 150.601 126.075 148.439C127.702 146.072 135.301 146.782 133.146 142.363C129.507 139.375 129.215 145.969 126.317 146.134C125.038 144.922 121.291 146.563 122.471 143.806C120.09 142.972 116.691 147.61 121.057 147.187C121.028 148.835 122.827 151.908 124.121 150.453C123.397 147.761 127.117 149.438 124.845 151.024C123.239 152.201 121.405 154.508 119.442 153.012C117.193 154.038 117.152 152.175 118.49 150.977C116.404 149.856 113.971 151.763 114.077 148.084C112.342 147.877 108.878 148.554 111.679 146.093C114.637 144.013 115.099 140.298 117.479 137.748C119.03 136.947 120.055 133.77 117.354 135.432C115.677 137.565 115.531 142.617 112.675 142.895C112.818 139.76 110.128 145.197 111.171 141.83C111.907 140.419 111.322 138.831 110.721 141.118C111.173 143.534 106.778 145.702 108.565 147.498C110.452 147.391 107.011 152.825 106.629 148.832C106.237 147.67 106.459 144.7 104.827 147.004C104.307 149.977 101.623 148.06 102.75 145.791C102.195 143.638 104.473 141.203 104.193 139.639C101.535 142.15 102.201 136.959 100.089 137.704C99.3184 140.508 104.289 141.088 102.341 144.339C101.591 148.158 101.179 141.328 99.3651 144.185C96.8183 144.691 97.82 149.444 94.432 148.521C93.7866 145.637 92.0196 147.173 91.9465 149.246C90.0656 149.424 89.645 146.531 87.51 148.285C86.0643 147.853 85.1618 146.661 84.6244 149.015C83.2341 149.536 80.6201 146.963 80.7749 150.258C80.8129 152.686 84.1892 151.536 83.9234 154.293C85.5765 155.28 84.3323 154.653 83.9614 155.402C85.7868 156.52 88.5352 158.78 86.8762 161.049C84.6331 158.576 81.7533 156.721 80.477 153.399C78.193 150.811 77.8338 147.14 75.9149 144.312C72.1998 142.227 74.548 138.352 73.2629 135.133C71.2798 132.125 68.8789 136.867 71.5893 138.112C73.1344 140.981 74.5743 143.706 75.9675 146.64C76.8086 149.986 78.8093 152.778 80.4741 155.718C82.355 158.079 85.0712 159.886 86.3242 162.705C83.5817 160.972 82.2148 157.848 79.7556 155.774C79.4314 155.026 77.1036 151.37 77.3227 153.29C79.2299 156.393 81.9841 158.789 84.0519 161.767C84.5368 163.418 86.9259 164.427 86.7886 166.184Z" fill="url(#paint8_radial_26_160)"/>
<path fill-rule="evenodd" clip-rule="evenodd" d="M143.687 36.4098C143.964 38.4893 142.682 40.3795 143.184 42.4471C143.196 44.5207 143.724 46.8842 142.159 48.5495C141.067 50.1764 140.845 52.1346 140.354 53.9863C139.866 55.4062 139.209 56.7521 138.946 58.2459C138.163 59.8698 138.219 61.7245 137.684 63.4283C137.407 64.931 137.375 66.4692 137.296 67.9925C137.687 68.9687 138.055 66.5135 138.292 66.0905C138.733 64.2802 139.822 62.7006 140.144 60.8696C140.068 58.9883 141.534 57.5448 141.712 55.6931C142.194 54.1668 143.021 52.7824 143.459 51.2384C144.157 49.434 143.973 47.4137 144.335 45.5264C144.7 43.6392 144.881 41.7461 144.98 39.8352C145.328 37.8297 145.509 35.8064 145.769 33.7861C146.315 31.8249 146.146 29.7514 146.777 27.8168C146.882 27.1365 147.875 24.3353 146.838 26.0894C146.02 27.8553 145.538 29.775 144.98 31.6415C144.82 32.1414 143.196 34.1233 143.687 36.4098Z" fill="white" fill-opacity="0.45"/>
<path fill-rule="evenodd" clip-rule="evenodd" d="M89.1764 150.858C89.1764 152.044 87.9854 153.005 86.5161 153.005C85.0469 153.005 83.8557 152.044 83.8557 150.858C83.8557 149.673 85.0468 148.712 86.5161 148.712C87.9853 148.712 89.1764 149.673 89.1764 150.858Z" fill="#54535A"/>
<path fill-rule="evenodd" clip-rule="evenodd" d="M140.532 100.06C140.532 100.766 139.966 101.339 139.269 101.339C138.572 101.339 138.007 100.766 138.007 100.06C138.007 99.3537 138.572 98.7812 139.269 98.7812C139.966 98.7812 140.532 99.3537 140.532 100.06Z" fill="#E7E6E8" stroke="#A9A9A9" stroke-width="2.38133"/>
<path fill-rule="evenodd" clip-rule="evenodd" d="M147.819 75.9479C147.819 76.6541 147.382 77.2265 146.843 77.2265C146.304 77.2265 145.867 76.6541 145.867 75.9479C145.867 75.2417 146.304 74.6693 146.843 74.6693C147.382 74.6693 147.819 75.2417 147.819 75.9479Z" fill="#E7E6E8" stroke="#A9A9A9" stroke-width="2.38132"/>
<path opacity="0.65803" fill-rule="evenodd" clip-rule="evenodd" d="M92.011 57.0413C91.9967 57.9554 90.9386 58.6567 89.6478 58.6077C88.3569 58.5587 87.3221 57.7779 87.3365 56.8638C87.3508 55.9497 88.4089 55.2484 89.6997 55.2974C90.9906 55.3464 92.0254 56.1272 92.011 57.0413Z" fill="#959595" stroke="#B9B9B9" stroke-width="2.69448"/>
<path fill-rule="evenodd" clip-rule="evenodd" d="M83.6033 139.058C83.6033 140.045 82.8455 140.845 81.9108 140.845C80.976 140.845 80.2183 140.045 80.2183 139.058C80.2183 138.071 80.976 137.271 81.9108 137.271C82.8455 137.271 83.6033 138.071 83.6033 139.058Z" fill="#94939A" fill-opacity="0.65476"/>
<path fill-rule="evenodd" clip-rule="evenodd" d="M80.1773 123.076C80.1773 124.063 79.4195 124.863 78.4848 124.863C77.55 124.863 76.7922 124.063 76.7922 123.076C76.7922 122.089 77.55 121.289 78.4848 121.289C79.4195 121.289 80.1773 122.089 80.1773 123.076Z" fill="#94939A" fill-opacity="0.65476"/>
<path fill-rule="evenodd" clip-rule="evenodd" d="M78.7345 123.807C78.7345 124.793 77.9767 125.593 77.042 125.593C76.1073 125.593 75.3495 124.793 75.3495 123.807C75.3495 122.82 76.1073 122.02 77.042 122.02C77.9767 122.02 78.7345 122.82 78.7345 123.807Z" fill="#94939A" fill-opacity="0.65476"/>
<path fill-rule="evenodd" clip-rule="evenodd" d="M80.8987 136.958C80.8987 137.945 80.1409 138.745 79.2062 138.745C78.2714 138.745 77.5137 137.945 77.5137 136.958C77.5137 135.971 78.2714 135.171 79.2062 135.171C80.1409 135.171 80.8987 135.971 80.8987 136.958Z" fill="#94939A" fill-opacity="0.65476"/>
<path fill-rule="evenodd" clip-rule="evenodd" d="M56.73 129.285C56.73 130.271 55.9722 131.071 55.0375 131.071C54.1027 131.071 53.345 130.271 53.345 129.285C53.345 128.298 54.1027 127.498 55.0375 127.498C55.9722 127.498 56.73 128.298 56.73 129.285Z" fill="#94939A" fill-opacity="0.65476"/>
<path fill-rule="evenodd" clip-rule="evenodd" d="M166.142 118.908C166.142 119.895 165.384 120.695 164.449 120.695C163.515 120.695 162.757 119.895 162.757 118.908C162.757 117.921 163.515 117.121 164.449 117.121C165.384 117.121 166.142 117.921 166.142 118.908Z" fill="#94939A" fill-opacity="0.65476"/>
<path fill-rule="evenodd" clip-rule="evenodd" d="M13.7612 131.767C13.892 132.421 14.8982 134.586 15.2916 135.382C16.3016 137.429 17.1054 135.065 17.332 134.607C17.8805 133.498 20.2261 136.506 20.3926 136.675C21.2746 137.568 22.7087 136.405 23.1994 136.157C24.6042 135.447 25.8046 135.87 24.2187 136.675C22.9949 137.293 23.1906 138.21 23.7076 139.257C24.2274 140.307 24.096 141.594 24.4728 142.357C24.905 143.23 23.1877 143.392 22.1771 143.392C21.0264 143.392 20.2349 142.496 19.3727 141.842C18.8639 141.455 17.1661 142.957 16.8218 143.132C16.032 143.531 15.8717 146.259 15.2916 143.907C15.1114 143.176 16.8334 142.227 17.332 142.1C18.8499 141.715 18.4343 140.635 17.077 140.292C15.4914 139.89 16.7008 139.121 17.332 138.482C17.9824 137.825 15.6868 137.592 15.0363 136.932C14.1978 136.083 14.0553 135.542 13.7612 134.35C13.3531 132.696 14.2153 134.066 13.7612 131.767ZM18.6075 119.107C18.5929 119.051 20.3867 121.163 20.6467 121.692C21.2659 122.944 21.9055 124.21 22.1771 125.307C22.662 127.268 21.2162 125.109 20.9037 124.792C19.8099 123.683 19.2918 123.798 18.3522 124.275C16.1824 125.372 17.882 122.943 18.0972 122.725C18.8925 121.92 18.6075 120.45 18.6075 119.107ZM139.314 7.95675C160.331 16.7509 176.421 31.8767 186.503 49.0672C183.641 49.3393 181.48 47.1593 179.718 45.1034C178.065 43.2872 178.27 39.1342 175.402 39.004C173.302 40.6102 175.308 43.089 176.336 44.6864C177.621 46.4937 175.203 48.3839 174.531 45.7808C173.042 43.2754 172.902 40.205 171.167 37.8386C169.978 35.2799 168.766 32.5674 166.213 31.118C164.125 29.4763 161.476 28.7309 159.233 27.3169C156.479 27.03 159.82 31.0233 159.244 32.4905C157.848 34.0553 157.667 28.1097 156.8 31.2984C156.645 32.2213 156.181 33.7624 156.403 31.8042C156.549 29.7218 156.873 27.1365 159.069 26.5242C158.69 23.1787 154.455 25.9444 153.146 23.2171C151.543 21.5251 149.025 22.0103 147.384 22.2735C147.29 25.6013 144.369 21.3329 144.034 20.1319C142.024 19.0307 140.035 17.5135 138.107 16.5391C137.237 17.3348 132.754 18.3033 135.26 16.2942C136.416 15.4032 139.063 13.8293 136.034 14.2907C133.51 14.16 130.981 14.4514 128.831 15.8901C129.886 13.8763 131.802 11.8711 134.299 12.4577C136.466 12.7369 139.912 12.9099 139.226 9.66796C139.322 9.16096 139.209 8.46405 139.314 7.95823V7.95675ZM52.3005 12.4902C71.0718 2.20076 97.0425 -4.41069 126.051 3.4798C123.682 3.94332 119.24 6.92174 117.122 4.95969C115.23 3.89007 111.737 4.32342 113.279 7.23884C111.433 8.25077 108.711 5.18687 107.078 7.41987C106.5 8.53533 109.566 10.1723 106.707 9.97293C103.804 10.6379 104.125 6.16567 101.278 7.20896C98.1524 6.98445 100.086 3.61557 102.361 3.85901C104.204 3.84422 104.178 2.38533 102.303 2.37528C100.813 2.04487 95.7253 0.67797 98.1845 3.64929C97.3171 4.62484 93.5056 3.94568 95.9561 5.79415C97.2412 8.18511 92.3373 7.28972 93.0091 5.22798C90.9938 5.6069 89.846 4.85587 91.3355 3.28694C88.8062 3.12188 86.2711 3.96787 83.7067 3.84038C80.5261 4.37637 77.6959 6.2204 74.4452 6.64014C69.997 6.59813 74.7577 11.651 71.4515 13.1889C69.3866 14.4821 66.7638 13.3445 64.5528 14.2594C61.9505 14.7966 59.2693 15.492 57.5432 17.7161C55.9368 18.9493 51.5061 20.3552 52.5517 16.6554C52.6218 15.531 52.5313 13.6089 52.3005 12.4902ZM199.018 82.7577C196.974 70.5027 192.318 58.8836 187.561 50.8674C187.14 49.3736 184.018 49.8676 183.86 51.2934C183.29 52.6334 185.44 53.8373 184.514 54.9169C183.445 55.0767 182.727 55.8605 183.918 56.6415C184.987 57.7596 186.459 58.292 187.698 59.1617C188.691 59.8716 189.255 61.5695 187.572 61.7618C186.258 62.5072 186.763 64.5216 188.165 64.8233C189.319 65.4445 190.876 65.2434 191.758 66.3289C192.607 67.7518 191.807 69.5502 192.645 70.9937C193.478 72.4609 193.2 74.1706 193.528 75.762C193.831 77.5694 194.044 79.5808 195.481 80.8794C196.323 81.9473 197.812 82.2253 199.018 82.7577ZM189.322 143.687C191.41 142.631 186.398 147.417 185.353 149.532C184.637 150.984 183.84 152.165 182.829 153.185C181.605 154.424 181.395 155.007 179.943 155.744C178.124 156.664 180.06 153.067 180.303 152.821C181.153 151.96 182.338 150.762 183.188 149.899C184.196 148.881 184.818 147.692 185.353 146.609C186.106 145.086 187.394 144.468 189.322 143.687ZM173.089 154.282C173.737 152.972 171.497 156.915 170.203 157.572C168.705 158.329 168.039 159.453 168.039 156.474C168.039 155.282 169.546 153.487 170.203 152.821C171.208 151.804 172.382 151.171 173.451 150.629C174.531 150.082 173.538 153.147 173.089 154.282ZM180.303 147.707C181.702 147 178.877 150.555 178.501 152.091C178.077 153.803 176.675 153.916 174.894 153.916C174.409 153.916 173.252 156.758 172.367 157.205C170.241 158.282 169.835 159.382 170.565 160.858C171.348 162.444 173.611 159.598 173.81 159.397C174.911 158.282 175.045 157.051 175.974 156.11C177.113 154.957 177.975 154.081 178.86 153.185C179.596 152.443 180.028 150.277 180.303 149.168C180.419 148.695 180.303 148.195 180.303 147.707ZM48.3605 185.371C76.294 202.528 111.529 204.817 142.085 191.053C140.088 190.441 136.498 189.305 133.747 190.068C131.016 190.237 130.187 195.023 126.53 193.384C124.351 191.127 120.908 192.447 118.594 190.923C117.02 191.512 115.452 193.165 114.5 191.266C111.643 191.376 109.234 193.603 106.503 191.482C103.036 189.941 102.39 193.021 104.441 194.085C101.47 194.757 98.0035 193.133 96.2102 190.787C96.6716 188.995 96.8118 185.912 94.0956 187.045C94.1861 189.477 91.7503 190.719 90.5469 191.598C88.152 188.444 85.6665 191.154 83.5168 192.884C80.5524 193.396 77.8712 190.583 74.8336 192.053C72.7161 192.914 70.7505 191.583 71.32 189.219C69.3048 189.098 64.5703 187.27 68.0898 185.241C65.1632 184.522 61.9038 185.173 59.5059 182.922C58.4311 181.709 53.1504 180.872 56.2201 183.117C58.9889 183.582 60.8231 188.172 56.6728 187.338C53.6557 187.817 51.0855 182.552 48.3605 185.371ZM167.566 105.676C166.64 105.443 165.352 104.718 165.016 103.351C164.753 102.292 165.284 100.973 165.524 99.9941C165.752 99.0741 163.628 100.225 162.72 99.9941C161.505 99.6864 161.704 98.6866 161.19 100.769C160.804 102.328 161.438 103.109 160.936 104.126C160.661 104.683 159.02 105.292 158.64 105.676C157.536 106.792 158.357 107.714 158.894 108.259C158.947 108.315 161.333 106.795 161.444 106.709C162.53 105.886 162.922 106.043 163.485 104.901C163.909 104.044 165.985 106.661 166.035 106.709C167.116 107.806 167.566 107.7 167.566 105.676Z" fill="#FBFBFC"/>
<path fill-rule="evenodd" clip-rule="evenodd" d="M156.47 22.7527C156.701 21.9511 154.251 20.0757 153.027 20.1704C151.479 20.2887 152.796 21.7825 153.027 21.9777C155.524 24.0661 156.555 23.1816 156.47 22.7527Z" fill="#5F5E64"/>
<path fill-rule="evenodd" clip-rule="evenodd" d="M170.565 71.3824C170.65 71.7196 172.321 72.7934 172.73 73.2075C173.104 73.5861 174.117 74.1837 174.716 74.4883C175.385 74.8285 175.869 75.29 176.337 75.7662C176.976 76.414 177.33 76.9849 177.78 77.5942C178.153 78.0971 178.142 79.1383 178.142 79.9666C178.142 80.8628 177.42 81.0551 177.42 82.1585C177.42 82.6495 178.746 81.8656 178.863 82.3419C179.021 82.9808 179.52 83.673 179.766 84.1699C180.262 85.1727 179.748 85.6341 179.044 85.8116C178.323 85.995 179.027 87.471 178.501 88.0035C177.905 88.6099 177.569 88.7341 176.518 88.7341C175.119 88.7341 176.1 89.8789 176.518 90.1954C177.158 90.6805 177.239 91.4022 177.239 91.84C177.239 93.2392 174.605 90.7308 174.535 90.5622C174.082 89.4943 172.92 91.4584 172.911 91.4762C172.382 92.547 172.151 90.8225 172.371 90.3788C172.537 90.0416 174.532 90.1066 174.894 90.0149C175.662 89.8197 174.888 88.3555 174.535 87.6397C174.319 87.2019 175.507 87.3379 175.978 87.4562C176.629 87.6219 176.404 86.1104 176.88 85.6312C177.566 84.9331 177.339 84.1699 176.337 84.1699C175.183 84.1699 174.932 83.951 174.716 83.0725C174.517 82.2768 173.41 82.5134 172.73 82.3419C171.874 82.1259 171.351 81.9484 170.837 81.4278C170.262 80.8481 170.043 80.5877 169.844 79.7861C169.651 79.0023 169.467 78.0675 169.304 77.4108C169.032 76.3075 169.114 75.9289 168.763 75.219C168.311 74.299 168.06 74.2872 168.763 73.5743C169.47 72.8585 169.61 72.5922 170.565 71.3824Z" fill="#98989E"/>
<path fill-rule="evenodd" clip-rule="evenodd" d="M172.939 78.9138C172.753 79.0402 172.467 78.9389 172.301 78.6875C172.134 78.4361 172.15 78.1299 172.336 78.0034C172.522 77.877 172.808 77.9783 172.975 78.2297C173.141 78.4811 173.125 78.7873 172.939 78.9138Z" fill="#E7E6E8"/>
<path opacity="0.59585" fill-rule="evenodd" clip-rule="evenodd" d="M97.0509 167.928C97.9769 170.443 96.2649 173.215 93.2268 174.12C90.1889 175.024 86.9753 173.719 86.0494 171.204C85.1234 168.688 86.8356 165.916 89.8736 165.012C92.9116 164.107 96.125 165.413 97.0509 167.928Z" fill="url(#paint9_radial_26_160)"/>
<path opacity="0.84974" fill-rule="evenodd" clip-rule="evenodd" d="M94.2727 168.757C94.7298 169.999 93.8846 171.368 92.3849 171.814C90.8853 172.261 89.2989 171.616 88.8418 170.375C88.3847 169.133 89.2299 167.764 90.7296 167.318C92.2293 166.871 93.8156 167.516 94.2727 168.757Z" fill="white"/>
<path fill-rule="evenodd" clip-rule="evenodd" d="M83.9059 70.0247C83.865 66.8715 84.7412 63.7774 84.4141 60.5975C84.1045 57.1426 85.2932 53.6639 84.5689 50.2504C83.2225 49.0879 83.4503 53.9745 83.3948 55.2051C84.1016 58.0211 82.06 60.9081 83.3744 63.449C84.2418 65.8628 82.5449 69.0042 81.1459 70.8026C77.1474 71.0186 80.0535 65.7533 80.7574 63.7833C80.8129 60.2751 80.1411 56.8497 79.1686 53.4983C79.078 51.8477 77.0365 46.8605 77.4483 51.2532C77.1737 54.3443 78.4647 57.184 78.7713 60.2011C78.783 63.2982 79.005 66.5313 78.2982 69.5248C76.613 70.5157 71.4287 69.51 72.7956 67.2619C76.6246 67.2087 68.9695 62.3457 73.7916 61.9138C75.5849 61.3814 77.1708 63.4816 77.1737 60.3875C78.7918 55.9416 73.5375 57.3082 71.5952 58.8967C71.2476 56.9237 71.4317 52.7617 70.0034 51.9601C68.0962 54.6282 71.0929 57.4206 70.3948 60.2692C70.1057 61.5086 72.3195 62.8604 69.8778 62.6208C70.2751 64.8541 70.1611 66.9602 67.5384 67.6346C66.7673 71.2434 63.207 68.1996 61.1713 67.5755C60.3389 64.0554 55.6775 66.8448 54.0477 63.9785C53.2387 62.8131 51.3373 62.6622 53.2971 64.085C55.6804 66.5106 59.6934 66.8537 61.2969 70.1312C58.528 70.6695 56.098 67.8713 53.4431 67.1081C52.4881 66.1083 46.8716 65.215 50.4523 66.833C53.5687 68.7232 57.0823 69.9862 59.9154 72.3438C58.9311 73.9529 54.5588 71.9829 52.4034 71.6427C51.495 72.0746 56.0601 73.9766 57.4269 74.2339C56.2207 74.6865 51.6878 76.3312 54.959 76.6122C57.0005 77.1032 59.9563 73.3377 60.9902 75.3254C60.3914 77.2127 60.9668 78.6887 60.3067 80.3363C60.8763 81.978 66.1189 83.4422 61.9803 83.8563C60.2659 83.6848 57.0327 84.9183 60.4382 85.5247C62.7572 85.3945 66.1043 85.4241 67.7808 84.8266C65.2515 85.9417 62.4038 86.6369 59.7752 87.3054C58.1834 86.7611 53.744 85.4211 53.5337 86.8735C55.3825 88.9471 59.5766 87.5006 60.6601 89.4618C58.6712 88.95 54.1908 87.9621 55.73 91.5945C54.8538 93.5498 54.4624 95.4103 56.6851 96.6054C56.9012 99.664 61.9949 97.1763 60.8179 100.261C63.2917 100.939 65.9612 101.451 66.706 104.559C67.4887 105.657 67.1704 109.434 69.1798 107.006C68.3591 104.314 68.2656 101.468 66.7907 98.9925C65.6662 96.3125 67.5676 101.655 68.657 101.88C70.3598 103.959 71.0344 98.3151 72.8277 101.202C75.6666 102.021 70.2809 97.404 73.8821 97.123C77.4103 96.348 76.1778 101.927 76.1719 104.107C76.2011 105.752 76.1164 108.014 73.9931 106.222C71.1396 105.299 73.1724 108.686 71.6332 109.715C70.9789 112.227 73.0439 115.037 75.0737 112.304C76.1486 115.158 78.3157 117.214 80.7545 118.749C82.7114 120.58 83.4912 122.905 82.6821 125.505C84.4083 125.618 84.7704 122.438 86.9902 122.683C88.1818 120.196 86.9697 116.306 84.4638 115.327C82.6617 113.436 87.8109 113.534 86.9025 110.842C87.7787 109.414 87.0544 104.355 85.4977 107.026C86.9171 108.982 85.007 111.78 84.4141 108.517C85.8803 105.997 83.4999 104.784 82.3054 103.311C83.091 99.6314 79.7118 97.0579 81.3649 93.3841C81.5664 92.0855 83.3247 95.2003 84.7179 94.4401C87.4925 94.9992 90.346 94.8217 93.1557 95.0879C97.4345 94.733 90.901 91.7187 89.3384 92.0057C86.8178 93.0351 84.1775 92.1329 82.1506 90.5C78.4267 88.3318 84.6624 87.2433 86.3213 88.5034C88.3278 89.2873 89.5633 92.2068 91.082 92.6032C92.9484 90.8816 91.8765 87.3853 94.5489 86.7848C94.5606 85.1401 89.6567 83.2766 93.8509 82.9423C96.9497 80.78 91.0207 80.5168 89.7152 79.5998C90.1182 77.7924 94.0232 75.9052 91.1346 73.7666C88.9499 73.6897 89.4874 69.9507 87.5071 72.3231C83.9994 74.6333 87.1128 69.6076 86.7273 68.8918C85.6262 68.2913 84.8026 69.6372 83.9059 70.0247Z" fill="#A8A7AA" fill-opacity="0.86706"/>
<path fill-rule="evenodd" clip-rule="evenodd" d="M76.7619 76.485C75.7484 75.0651 74.9336 73.104 73.0234 72.7875C71.7646 72.3467 70.1729 72.5745 69.7902 74.0683C69.2178 75.5591 71.9048 75.0563 72.7226 75.5858C73.4177 76.346 74.548 77.4197 74.5013 78.3692C73.2133 79.0111 71.8406 79.6412 70.3656 79.5761C68.914 79.9547 68.2452 78.4018 67.7428 77.3369C67.0915 75.9762 65.6575 75.0297 65.5611 73.4175C65.6283 72.4029 64.8455 70.001 64.0219 71.9888C63.3297 73.2134 64.1066 74.4854 64.8718 75.4349C65.6458 76.7897 63.0727 76.5885 62.8857 77.754C62.2227 79.233 63.4932 80.9427 65.0237 81.0137C65.8152 81.1439 68.5928 80.9427 67.1383 82.1969C66.3146 82.333 65.6633 82.9305 66.9017 83.1021C68.1517 83.7203 70.8359 82.8654 70.8183 84.8828C69.7114 85.9447 67.9736 86.5334 67.6143 88.2106C67.1704 89.1364 66.9367 91.3194 68.5782 90.5119C69.4485 90.3936 70.1816 87.7609 70.129 89.7517C70.2137 91.0798 69.6588 92.7541 70.7979 93.7657C71.5865 94.0585 72.9855 92.2985 72.597 94.097C72.1268 95.0909 72.5941 96.1499 73.7624 95.4429C75.4213 94.236 75.2373 97.6644 77.0189 97.41C78.7714 97.691 78.3011 95.5997 77.422 94.8897C76.1603 94.6413 75.4827 93.5793 75.5119 92.2897C75.1234 90.994 72.6993 92.5322 72.6438 90.8047C72.8248 89.6215 73.4849 87.8408 71.642 87.7757C69.6997 87.1398 72.5503 85.8737 73.4294 85.7288C75.1147 85.3827 77.0189 86.3322 78.5406 85.2082C79.9279 84.4835 81.1926 83.2352 82.8691 83.3683C84.0724 83.9096 85.4393 83.8268 86.6105 84.3829C87.4662 85.0958 88.0971 86.2553 89.3355 86.3263C90.1358 86.5748 91.967 86.9297 90.9944 85.5188C90.4833 84.2794 89.2274 83.812 88.1351 83.2588C87.4429 82.7737 85.5327 81.5609 87.5071 81.6526C88.9003 82.0401 89.9342 81.3716 89.5166 79.8423C89.87 78.319 87.1683 78.1415 87.2472 79.588C87.0281 80.8481 86.4469 82.4543 85.0275 82.6525C83.497 82.753 81.9345 82.5046 80.4858 82.0194C79.6505 81.3835 78.269 79.4312 80.1674 79.3572C80.9765 79.1176 82.8837 78.7982 81.5519 77.7067C80.8363 76.6447 79.151 76.4643 78.8882 75.0918C79.3672 73.6778 77.6761 72.0953 77.0803 74.0091C76.8116 74.8019 76.7678 75.6508 76.7619 76.485Z" fill="#B9B8BA"/>
<path fill-rule="evenodd" clip-rule="evenodd" d="M77.0189 79.8423C77.0657 79.4489 76.6188 79.3306 76.3209 79.443C75.36 79.6708 74.4984 80.2594 73.5053 80.357C72.8803 80.3215 72.3604 80.7859 72.0859 81.3125C71.8055 81.8508 71.5835 82.4513 71.5923 83.0666C71.6011 83.6049 72.0246 84.0279 72.4977 84.2054C73.1519 84.4539 73.8441 84.584 74.5188 84.7615C75.5761 85.007 76.6743 85.078 77.7491 84.9449C78.2982 84.8798 78.8239 84.584 79.1043 84.093C79.4694 83.5399 79.6943 82.8329 79.4606 82.1821C79.2942 81.6852 78.9904 81.2504 78.7509 80.7919C78.3216 80.3275 77.6995 80.1293 77.1387 79.8897C77.0978 79.8749 77.0569 79.8601 77.0189 79.8423Z" fill="#E5E5E6"/>
<path fill-rule="evenodd" clip-rule="evenodd" d="M54.0623 79.3247C52.5786 75.4763 48.0106 74.0417 51.2555 69.2497C44.3335 68.1611 50.6714 63.5999 46.2903 59.6924C49.9149 59.6717 51.9419 63.7862 49.8828 57.885C52.0119 52.6079 55.0904 59.7545 58.6799 55.3737C65.6632 53.3178 60.1081 48.8749 55.5927 51.9424C52.1521 53.6462 46.2085 50.2031 53.297 49.8777C62.1204 47.4876 51.8659 44.0711 47.8208 44.6331C42.952 44.6183 50.6655 32.9549 44.681 38.1965C46.781 47.5556 32.233 42.1602 33.1472 46.26C37.9313 48.7566 25.1883 52.0903 23.7076 56.335C20.5941 59.2634 15.2898 64.7476 22.4341 59.435C28.6114 57.5803 37.1018 44.6272 41.7779 51.2591C38.5885 56.474 35.4867 62.1238 29.0991 57.2668C25.0219 60.4496 37.5983 60.2485 31.8446 65.7504C31.3422 73.2933 37.0113 59.0298 36.1526 67.8387C37.7473 61.1921 38.1766 66.4366 40.1364 67.2589C47.4177 62.8959 42.3708 71.5421 38.2672 72.9265C29.1225 77.8812 47.7156 79.5051 39.5085 83.457C38.5709 86.137 22.1012 83.1405 32.125 85.785C37.0872 85.1697 41.3105 86.7848 34.1724 87.9739C28.6026 95.5523 41.109 85.9684 41.109 91.8814C41.6493 96.2711 48.9657 98.7706 45.6594 91.9702C46.9095 85.3679 49.2431 94.3396 49.0796 94.4993C51.2555 89.938 54.8217 84.7911 54.0623 79.3247Z" fill="#A8A7AA" fill-opacity="0.86706"/>
<path fill-rule="evenodd" clip-rule="evenodd" d="M53.04 82.1673C52.3011 82.3981 51.565 83.0163 50.756 82.7737C49.9762 82.5016 50.6275 81.2859 49.8214 81.1587C49.0416 80.9131 48.3903 80.1914 48.4516 79.3247C48.4574 78.6798 48.4779 77.47 47.5316 77.6031C46.8306 77.6327 45.8493 77.9196 46.0566 78.8425C46.0917 79.585 46.5093 80.2801 46.4188 81.0255C45.9048 81.697 44.9643 80.2624 44.5496 81.1764C44.2254 81.7562 43.9216 82.6022 43.1038 82.4898C42.6774 82.5785 42.067 82.2206 41.7691 82.3359C42.2393 82.9009 42.7971 83.3949 43.3258 83.8978C43.5186 84.7852 42.2773 84.6905 41.7136 84.8503C40.7731 85.0396 39.7947 84.9213 38.8659 85.1579C38.127 85.2821 38.6322 85.8264 39.1171 85.7495C40.6037 85.8974 42.0816 85.5691 43.5215 85.2466C44.3042 85.5099 44.1728 86.5718 44.3714 87.2374C44.4123 87.7047 44.7131 88.2875 44.8416 88.601C44.7336 87.7284 46.2056 87.9296 46.375 88.5921C46.4626 89.0122 46.8744 89.4766 46.9854 88.7874C47.1636 88.2934 47.2746 86.9209 48.0369 87.5509C48.4983 87.9769 48.5392 88.7134 48.8868 89.1601C49.3512 88.6691 49.4125 87.9118 49.6491 87.2906C49.8097 86.557 50.7034 86.5807 51.2847 86.6339C51.9214 86.6073 52.7479 87.0126 53.2678 86.6842C52.8063 86.0128 52.0265 85.646 51.4219 85.1165C51.089 84.9124 50.829 84.6225 51.4103 84.6728C52.4033 84.5663 53.4255 84.5456 54.404 84.4716C53.446 84.1788 52.4354 84.0546 51.4424 83.9569C51.6351 83.3387 52.304 82.9423 52.7362 82.4631C52.8385 82.3655 52.9465 82.2738 53.04 82.1673Z" fill="#B9B8BA"/>
<path fill-rule="evenodd" clip-rule="evenodd" d="M41.5646 56.8527C40.2124 56.6988 39.3741 56.8941 38.7578 58.1424C38.7257 58.2045 36.6579 59.4942 36.4622 59.6924C35.1479 61.0235 37.0872 59.8343 37.4815 59.435C38.0043 58.9055 40.0751 59.1777 41.0535 59.1777C42.3182 59.1777 41.9735 57.888 41.5646 56.8527Z" fill="#F3F3F4"/>
<path fill-rule="evenodd" clip-rule="evenodd" d="M41.8187 53.7527C42.1663 53.7527 42.8147 56.1339 40.5424 55.56C39.6253 55.3263 40.5103 53.0427 40.5424 52.9777C40.7644 52.528 41.3923 53.4924 41.8187 53.7527Z" fill="#E5E5E6"/>
<path fill-rule="evenodd" clip-rule="evenodd" d="M47.9405 83.1997C47.996 83.0873 45.3177 85.01 48.1946 85.01C49.3716 85.01 48.3143 83.8327 47.9405 83.1997Z" fill="#E5E5E6"/>
<path fill-rule="evenodd" clip-rule="evenodd" d="M200.495 100.095C200.495 155.245 155.726 199.957 100.497 199.957C45.2713 199.957 0.498901 155.248 0.498901 100.095C0.498901 44.944 45.2685 0.232452 100.497 0.232452C155.723 0.232452 200.495 44.9412 200.495 100.095Z" fill="white" fill-opacity="0.74"/>
</g>
<defs>
<linearGradient id="paint0_linear_26_160" x1="37.7119" y1="159.96" x2="-0.164476" y2="78.5379" gradientUnits="userSpaceOnUse">
<stop stop-color="#ADADB0"/>
<stop offset="1" stop-color="#B7B7B9" stop-opacity="0.38776"/>
</linearGradient>
<linearGradient id="paint1_linear_26_160" x1="159.832" y1="173.488" x2="95.6465" y2="64.6917" gradientUnits="userSpaceOnUse">
<stop stop-color="#ADADB0"/>
<stop offset="1" stop-color="#B7B7B9" stop-opacity="0.38776"/>
</linearGradient>
<linearGradient id="paint2_linear_26_160" x1="142.891" y1="30.2804" x2="73.2873" y2="11.4593" gradientUnits="userSpaceOnUse">
<stop stop-color="#ADADB0"/>
<stop offset="1" stop-color="#B7B7B9" stop-opacity="0.38776"/>
</linearGradient>
<radialGradient id="paint3_radial_26_160" cx="0" cy="0" r="1" gradientUnits="userSpaceOnUse" gradientTransform="translate(30.2454 83.1525) rotate(5.9715) scale(64.7311 113.98)">
<stop stop-color="#7D7D7F"/>
<stop offset="1" stop-color="#515056"/>
</radialGradient>
<linearGradient id="paint4_linear_26_160" x1="54.3122" y1="154.922" x2="54.3997" y2="109.544" gradientUnits="userSpaceOnUse">
<stop stop-color="#4A4A4C"/>
<stop offset="1" stop-color="#626266"/>
</linearGradient>
<radialGradient id="paint5_radial_26_160" cx="0" cy="0" r="1" gradientUnits="userSpaceOnUse" gradientTransform="translate(153.782 116.642) rotate(26.1486) scale(59.7105 17.3839)">
<stop stop-color="#7D7D7F"/>
<stop offset="1" stop-color="#515056"/>
</radialGradient>
<radialGradient id="paint6_radial_26_160" cx="0" cy="0" r="1" gradientUnits="userSpaceOnUse" gradientTransform="translate(123.814 25.9436) rotate(-37.7738) scale(17.0693 31.7324)">
<stop stop-color="#8B8B8E"/>
<stop offset="1" stop-color="#58575D"/>
</radialGradient>
<radialGradient id="paint7_radial_26_160" cx="0" cy="0" r="1" gradientUnits="userSpaceOnUse" gradientTransform="translate(91.2246 168.869) rotate(9.40421) scale(52.3449 107.737)">
<stop stop-color="#FDFDFE"/>
<stop offset="1" stop-color="#F1F1F2" stop-opacity="0.46939"/>
</radialGradient>
<radialGradient id="paint8_radial_26_160" cx="0" cy="0" r="1" gradientUnits="userSpaceOnUse" gradientTransform="translate(91.2226 168.876) rotate(21.589) scale(42.6041 49.7393)">
<stop stop-color="#FDFDFE"/>
<stop offset="1" stop-color="#F1F1F2" stop-opacity="0.46939"/>
</radialGradient>
<radialGradient id="paint9_radial_26_160" cx="0" cy="0" r="1" gradientUnits="userSpaceOnUse" gradientTransform="translate(91.5949 169.551) rotate(-16.5818) scale(5.73946 4.84332)">
<stop stop-color="#8C8C8C"/>
<stop offset="0.67308" stop-color="#8C8C8C"/>
<stop offset="1" stop-color="#8C8C8C" stop-opacity="0"/>
</radialGradient>
<clipPath id="clip0_26_160">
<rect width="200" height="200" fill="white" transform="translate(0.5)"/>
</clipPath>
</defs>
</svg>
