<svg width="30" height="30" viewBox="0 0 30 30" fill="none" xmlns="http://www.w3.org/2000/svg">
<path d="M28 6.93697C27.043 7.36197 26.015 7.64797 24.936 7.77697C26.038 7.11697 26.883 6.07197 27.281 4.82597C26.251 5.43697 25.109 5.88097 23.893 6.12097C22.92 5.08397 21.534 4.43597 20 4.43597C17.054 4.43597 14.666 6.82497 14.666 9.76997C14.666 10.188 14.714 10.596 14.804 10.985C10.371 10.763 6.44102 8.63897 3.80902 5.41097C3.35102 6.19897 3.08802 7.11497 3.08802 8.09397C3.08802 9.94397 4.02902 11.577 5.46002 12.533C4.58602 12.505 3.76302 12.265 3.04402 11.866C3.04402 11.889 3.04402 11.91 3.04402 11.933C3.04402 14.518 4.88202 16.674 7.32302 17.163C6.87602 17.285 6.40402 17.35 5.91702 17.35C5.57402 17.35 5.23902 17.316 4.91402 17.255C5.59302 19.374 7.56302 20.917 9.89702 20.96C8.07202 22.391 5.77202 23.244 3.27202 23.244C2.84202 23.244 2.41702 23.219 1.99902 23.169C4.36002 24.682 7.16302 25.565 10.176 25.565C19.988 25.565 25.352 17.437 25.352 10.388C25.352 10.157 25.347 9.92697 25.337 9.69797C26.38 8.94497 27.285 8.00597 28 6.93697Z" fill="#FFE99C"/>
</svg>
